<mxfile host="Electron" modified="2024-02-15T08:48:59.019Z" agent="Mozilla/5.0 (Windows NT 10.0; Win64; x64) AppleWebKit/537.36 (KHTML, like Gecko) draw.io/21.2.8 Chrome/112.0.5615.165 Electron/24.2.0 Safari/537.36" etag="EVd2mRwoUYe-YLVThxWC" version="21.2.8" type="device">
  <diagram name="Page-1" id="2XWkQP5S-hDbL94sL5Vg">
    <mxGraphModel dx="2058" dy="1180" grid="1" gridSize="10" guides="1" tooltips="1" connect="1" arrows="1" fold="1" page="1" pageScale="1" pageWidth="3300" pageHeight="4681" background="#999999" math="0" shadow="0">
      <root>
        <mxCell id="0" />
        <mxCell id="1" parent="0" />
        <mxCell id="APLwThIm-aDqV8bCMrbt-1" value="Page and TabBar" style="rounded=0;whiteSpace=wrap;html=1;fontSize=25;fillColor=#dae8fc;strokeColor=#6c8ebf;" parent="1" vertex="1">
          <mxGeometry x="1323" y="140" width="657" height="60" as="geometry" />
        </mxCell>
        <mxCell id="U5ahME9xwc7n_WyhiEPr-1" value="" style="shape=image;verticalLabelPosition=bottom;labelBackgroundColor=default;verticalAlign=top;aspect=fixed;imageAspect=0;image=data:image/png,iVBORw0KGgoAAAANSUhEUgAAAe8AAALwCAYAAAC+4f0eAAAAAXNSR0IArs4c6QAAAARnQU1BAACxjwv8YQUAAAAJcEhZcwAADsMAAA7DAcdvqGQAAO/lSURBVHhe7J0HYGVF2Ybfc1t622R77+wuvVfpqFSxYAF7V0QsiKIiqFgQ7KKIoiL4I1hQEbBQBAHpZdlle2/Zkt5uPf/3zZyT3GTTk5ubm7zP7uT0aefceeebmTPHOfCgg114uG77ageyr5u9Qvd7+0t3QZFxBh8Ckks4jrdCxisDewT6d7I5qxuPnV4C00NGvPsv2rJvPJa3A0g05WisMlbvbP8KGEIyRUaewFFc0bJR2z9+dnc3+3tIi7PswIM6l0pDEW2KXIbIUG5l+SbwGSC5RPdF6AiSsQhkPWU5w4Byqh8ViO6E3O7a/9quIt5ZvPcT7m5Eu1txH01kIHYD8HJ0500uk+WcHe83dv+yZBzCTOgvGcupfns8eu+ViVlXIbY7zbrS3Tk+vohb8e5GkPdrSu+XaA+ghMtQYZghbzNEBmLLfCUkZ+i+eB4GMuJxxmKbVQaUqmE82RwdhIh3iPeyAzvJdO+i7a3JostZo4h+xmwACRi9aR0qGUhZDmXW2L2v45vORV2WyEgkRkXKhp0BparfJ4/OvDKx6vhjsJud45su4t0fd+AsFfG2m8YA70SHkLef0keB1/vRTmTm1AwxVtOVS2Q5t3iz+k/ncmYMMTYTlpFUDcjT7ObryEbVemD+dvwx7Nen3ddxK95dhLurtW3/e3TdHgkGEFo/Tx3Z+PdEdiM7OvIgE4zdlJHhpnOBOFYYUKr6fXLu5FUXneuDkU1Xuih3rKZv23WlNwEX8V7WqaW8q7Xdsdm1z7vzlqGbXT0xgFMHRnpieiFj4WeE0ZCxw09u3QNChp+OoniYGZDHGYvFsNPvmGYo/UP3tmOnWfPEeD+RNn96P+YsWbrMlqGdxFnW7H+z3lkPu26n0+OB/cnMqQMgl+KaS4yCHMhyFMb7M9BRzOQAGYtsTuXCsDOg1Gfu5H4x0nE1ez1hVnxx9hb+n07n7Sfg7eLdRbjbxVlWQuEwiooKEQlHEMmLIBgMDkvplB7imCLrycpMBMbo3SIkq3QUx8NN5nzuF1kOPlN4Ejs0xItkMoloNIpYLI6WlhYk4nHZb/1OF2q7atcVv9lc/zpLlixNM6Q7C3dJSQnKysuwr64JrW0xtMUSiMeT3gmEkOyjP9iOH3dnWOUaGH5+ZSA/u3rZ1avugkw/p9PxLhf3xy+fgSTB96c/1/QWZjppatMt/fVnNDGQPPWIhEPIzwuLi6Cqogx1dfVobGiQ9NsM6JeAHyDibdYkBn6+ar93VVWV7Alg5546xOIJ2dtxMSFktDOIEmXck55nXcu7IeRnd0VnV+/6Ome/42kH++OXz0CS4fvTn2t6CzOdvsRb6a9f2WYgedkNvh6rkE+pmoBQ0MHu3XvsTqEnAff3B8yWxMLmqS5dlIrF7SKIzTv2esJNCCFkwNjytjODKfT1Gt8Z1OPuPBd68n8w4faX4fTbT2cm4zsa8NKnGrtl524kkra12w4a79Dk9r9excffH9A1f0OX4VDINJXv3FOrOwkhOUkPBTvpBV8Qu8u79GPdHe8FLV/TXX/o7bz++NPfcIaTbISZLYYhreY2mj9mE7v21qC8rMxocLomdxeY7g/4u+1JQFFxkenj7rC4B/GwEkJGAfzdZo5+5u3+5W5nfG/0vHQ3HPj+DKeffTFS4WSTYU6j8U7+qOburatHYVGh3e+F0y7kHRuGgNmZdpaOKtfBaYSQsUBvIqPHfEdGHD/bB5v9HeV4z/TnnOEmG2GOBJquDKXN97YtGjMa7Iu034Tun2AW3rFA+1WyQ1f1dTAdVW7hj5qQ8QFFPDfJtXvmP2d83vZDBLgtGkdeXl4nkdaN9G1vL5xFiw8wh+x+F3Nmz8GKddvMwZ4yt7SkEOFQ0NvqP/FEEg2NLd4WIWTk8H/y6XT3++7uPNI3A8y3rlk/mGz3/fAL+b4YaJjt/nvLgdDvR6sPz7vzJxsMJg8GybIFs7Fp8yZZc9pHlu+31L8q3n6zuS7nzJmNleu2m209qTu+951vYP6C+d5W9/jvom3ftbf92Wpu2IdPX3EVAoGBCz8hZKh0LYG6/32PaEk1phhAvnXN+sFkeboffQl4d7e6rzD9a4YaN59u/RlEvEeawaR/CCxdMAubNm1OE2ybCV23zWhzpb3fuxPdx7q8rATLDljYq1u6eIFxZ558LM46xbqJVZU9hEMIyTz6o/edor9F/h4zip/V6XS3b6hoge4V6qOVr33li9iy9hVs3/BqmlvV7rasXSHnfMk7exTg/TyeeOgBHH/M0XZfN+ixxx+839saLvzWcFlrX7EL/4CzaNFis+qf0NnyVvZ/IG775U8wY8Z83PPYWjgB17qguhTOPmQBpkwuQ1NTszm3qKgIf3x8o1mfW9KCS97zIQSDIbPdlVee+y8qKsq9LeDqr34Tv/z1Hd7W6EXj/f6PfBJPPfOctwf41c9/hLPOONXb6uBXt/0OX7rmG95WB3/74x14afmKbo919asnPwgZGH5p0PU37u8nA6OXfOtNV4ea3fvdvm487C78TN/m9DAlLBXuM89+A3ZWV3s7OzOhogKP/vs+zFq4zNsj9JZvmcbLHxXnH3//O7j08ivwxFNP250evR0bLNby9pvNbQbo0qylLb1JWgaGXu44QWysb8KmxkZsbmnA1mg9tsXrEI+n5NkR5/3zCUb6N63qG9/6bkyfd6AR7q9e/QVvb+7x3g99wqRD01NbW2fW1Q1WdP/574fb/Xjvu96BY446wjtCyGDRYiCbpeNYo5e8TBdKXU93PeHfnr5uUV/+KH0dzwR+mN5Sv4uhwt3Q0Nit27R5i/12xihDRVnFWUU63QLPhHAPhEGJdzKVMsuJlXlwIgnUJxqwp20fqlvt1G5Olwclv6INhVUDG6imFvfGTZvx/vdc7O0hPloZICQzZKOUHyv0kXd6uL/Z21Ww+xLw/uCHP5B4DJWRCme46RLvrgKebeFWBiXefrperd6GjXU7UZeoRSsaEXOazH7Xe9A8Ax9F5U0oLLbHBsorK1aZJuXtG7SvxLp00vdr87I6n/8+9PdOx7pDm7z9c/R8H93/9Wuu6vZ6rVD4+zVuA6G3tCj+fg2/OzTsuvr69ib6nvzT/Rpn3ddT2gnpTK6WtMTA25dR0gU828Kt9CDevVfz/KOtItbhgjjC+XGE8mIIizPIQ+QLt3LAxJlYUD7P2+ofKpw6VZyK1Hlvuri9yVibj30xUrFNb05O7xdW8Xrk0cfbjy1cMK/bpuYDjzix/Rwl3dI/5TUnmP3a9O37rX5oc77fvK/91On99H3RU1oUbQ73j2mrQ3rFQMNXIdawtc/bpzf/jjriMLNfm/AJIWOH7RtWdu/W67JjQFjOwwpJj/Riefcu4IoRbXHhPHVp4i2Xpuf5gor5xvWHP/3+N/LQvWKETIVVUcH0Lct0gZ47Z3YnYVLx8jHHxA//Ot0+75zXekc7SLeu9Zx0PnPl1WapFQhtqtZ4qB/Pv/BSu+WrfdgDacbuKS1Kuih//Vvf7RSf9EqKpkvjrfTm3z1/u89bI6Q/6G++79896Qk//zKQh11EbPq8pfu7+Z6bt6TdjQk07ekuk/QSRnpTeXoTerboo9m894fQCrcV7YguI1a87ch1PwdcxOJxtLa2edu941u06hQVJxV0f1+6QPclmul+qes6WEwF0Leu1am12x/27qvx1gZGb2npDm0e74616zZg+rSpA/aPkP5BAR86g8xD/zK/CE0vSoklE/nRRz537ePu2geeDbwPk3ixVtHtJQHtyAMWjbbimKr5OLJiIQ4vXYRDi5bg4IJlZr89xT6F6mUqlWof5DYY0kVam4LT8S1QJd3yVCH+0uc/7W31jO+3CmFXy7s71N/0cDT8gTSb95YWrUj43PjtrxqR7g7tAti+Y6dZ780/QgYPBXzE8bN8NGf9EOKWTCbN62A9MWXKZHNOv+iPTg0TPQ1Oy5iAa9pM+uRP+2t/3rtbsu3vGdSANdXhJYtn4sOnnoEPn3wWPnjS6/GBk87H+0+4AAcsnoHCwiJMmjQREyoniDUeNuIdCAzurmvztFqgftNwunWs71anN42nW57aF6xi7B9T1xW1xA8/7BBz7Jc/+0Env3tCR8FrOL6fhxy0rM8WAJ/e0qKoP/4xJb1LQCsM/jEVdY17X/4RMjQo4FnBL50Hil432Gv7yxD8/83t/2fe407vk093Tz/2oDlnxOklTfp+9Xe+ce1+wu3jC/gN3/yqt2fkcBYuWixRFzU3N16nR52Dlet32KM9cPknPoLDDj3Y29qfQCBgnNai0mdUe/mlV/Cd7/0QgR4maRkqOsCrp4lOCCGDZQgl9rgm2/mWi/dtAHEerrplH0GqgI/kzKBL53uTtEj6TAu2Tsxi0uq1Z5ttcYMRbzMJi1jTA02OBuyIqDvOoAz+XtFR4v4ocH8wGSFkuBi5wmvskO08y8V7NoA4GyUbBkZZNvVXvAeloiq+aj3rNKcDcXrNcAp3+jvOKtw6KxuFm5BMMFwlJRk5eM/GMoOyvAkhxJKL1t1IMhryJ5fu0QDiOlx1k1GWPRm1vAkhxDJcJSjJHGP0Hqno5lK9ZJiheBNChggFvGeYNxlnnAo4xZsQ0gMDMW0oUqObMX5/xqGAU7wJIT2gBf5ACn3//K5uvMM8IMMPxZsQQsj4JIctdoo3ISTD0PIko4yB9AiNUijehJAh4JeCY6A0HG2w14H0QrfveV/07X32KCGEEEJGjLuurOR73oQQQshYhOJNCCGE5BgUb0IIISTHEPHu6O/mcBNCCCEkuxgtNqPRPLyVDo12aXkTQgghuQbFmxBCCMkxKN6EEEJIjkHxJoQQQnIMijchhBCSY1C8CSGEkByD4k0IIYTkGBRvQgghJMegeBNCCCE5BsWbEEIIyTEo3oQQQkiOQfEmhBBCcgyKNyGEEJJjULwJIYSQHIPiTQghhOQYFG9CCCEkxwjYr3u73ke+9W/H574JGe+4LVGs+MNO/P66Lbjje7vw9Oqkd2QEqN6L7567CS82etvDSbQR//eGVXhgk7dNCBkVGDV20zQ5fd0sZFtWaXkT0hMNDbjj4tW4638pTFhYgEq04uXnY/5PKOfRAmDwxPH8d9bj7scS3vZAGer1hIxvKN6E9EDrizV4OW8iPvjt6Tjzool43afm4gNvL4DjHXejCdRsj6Kuya8ZCykXsdYUUrJs3R1DXYt3JJaUc2NojtlNn1RLHHu3x9HWq4a5iO6NYk9Nar+KQ7fXiyq37ZHzqxOIp7x9HskmOX9nAtFuGhD28ystLS21na9xUynUrWlDfTSFtmhH+rv6kYqlEEuLm7/d0/WEkP7hLFy4yBjlthbuYu6cObjo2zXmICHjmeSanfjmB+qw4JsL8JYTwgh6+0WCsPV3G3HTz1sQmBhAfE8SZefPwSc/XYpiber+QC1KFyWxbVMCtbsDOO6TE7D3d/uwO5VEbXMRLvr1fJw0PYUtt2/ATb9qQ6QMaGzLx/k/no9T5/lVA0H9+mAdJixNYOOGFFp2xFF+yQJc8ZEiRCQO3V4/pQl3f2ATnmsLoTCZQGNlFT76k6mYV5DEhl+sx09uj6JwYhCpojxUNsSx9LsH4HVzevCraJ+kpQ6VS6J46ZkQzvzlYrx+nsTLjeLBj6/FfculcpAfRMH8SfjUTycidkdXP+Zi3oNr8bNVk3DljRNQtnMvfvShWhz045lIfXtdl+snY0pa0gkZr/z+ygnYtHGTqLOj/8VY0D923dsy28HKysprdN2norwcy85s9bYIGb8EKouxbGYrHrh6C+57PIGKg4sxvdxBYtVO/Oj6JM65fTHe/b5JOOMN+Vj3na1Yt7ASB5e34cnfNKD804tx2acn45BALe74eQKn/WIx3vOhSkx8ZRf+01KKY/L34iffc3HhHYvwjvdOxCHuPtx5fwjHnJEvwuzR3IInf12L8AcX49Ofm4zXLIvh37e0YtabylC+fhd+3N31r4mg+PApuOjjk3DKm0vQetcOrJtXhWXNu/GTG1I4//8W413vnYQT57biobtimPGmKsyp7sGv41J47vZahC5ZhM9fNxkLRZRNAeKEMO+ccoSfrEP+xw/A5y4tRf6a7vwI46xPVqD1tm1YMa1UxH07tpw1G289IR/zu1xfbEokQsiKfxegrq6uXbB7Em82mxPSIw4qz5iFLz+wBG8/uAW/v/hV3PZYAjUvNCF6lAi1Zyo65cU46lgHW1bGbfNvaSEOWKJ2uoOKeXkomVeKJdP13BAmzQsh0ZDEvucb0VySxNPf2oCfXbER9zydRGxLK+q7NHOjrBiHHREyP9j8uYWYhKRpeq/p6fqCfFQ11eDPX1mP77xnEx7f4SLa6qL2hUa0HFaBgybZOOcdUIoFlWa1Z780MXmFOPDYiCkonG5Ki0DI+tejH5EinPO5Mmy+cQPuq6vC29+U36nQ8a8nhAwMijchfeAU5uHwy8T6/FQEL96yD3tSLpLxzv20pobs65AsA2nrjgiU/0PzBTCVdOFMLcFJF03Ea95chZMvno73f64C5fZwB+pX+8VerVtwe7g+/J/NuOEbzag4exre+5N5eP1Se0UyIeeHA+3XQ65PeH3YPfll4iLXFITNab3Smx/BwiBCsSQSeQGE2yNACBkKFG9CeqDx+Tqs2u2LtIhdXH4wIkATDipG3rP78NIu70hdE575n4P5h0U6xLEPypcUIrCiGW3zS7D0mFIsPaoQ5RNCKOrnL7L764OIrW9D8MhKHH9MASpjLVi9zpry5QsK4D5bizV1ZhNNsv7qPrveY1z6SEww6CLWZvOgRz+izfjrtbWYddU8nNy0E7/7e8do/fTrCSEDg+JNSE/sq8WtF7yET531Cj5/5nJ863YHZ1xeiakHT8G735bCn96yHF96y0pceeEW1L1lNs47uP8/p7wjpuLtp7fhtguW48tvXYkvnLUKdz/ftc28Z7q/3sWU15Sj6IH1+PKbVuJLl9bBmWXjlH/0VLz5mGb86sJXcPVbVuCGPwOzpppDg4xLGPOPDWPlN1bj6st2o/bw7vxIYPXNW/Hy0um44PginPzpStTftBVP7Nz/eq8eRAjpJxxtTkgvuLEk6vckkCwIoaw8iFCaPutrUTU1LvIqwygp8MxUfb0q6iKUH7BN58kUokkHeRF73I2nEJM6c57XFJ1oiKG2ASioCqM4v4up29Uvbzso20Hv1O6ud2MJ1O1zkS/78lIpJIMBhEPmEKI1UTSkQqisCiLVloIblmPeMPr9/Ooa/n7I8Zo4msNhVJTYE7r6kdAwJNP88JPRFFLt8dn/ekLGO/0dbU7xJoQQQkYJ/RVvNpsTQgghOQbFmxBCCMkxKN6EEEJIjkHxJoQQQnIMijchhBCSYwS8QeYGHXHurRJCCCEkC/g63KHJHeLsH6PlTQghhOQYFG9CCCEkx6B4E0IIITkGxZsQQgjJMSjehBBCSI5B8SaEEEJyDIo3IYQQkmNQvAkhhJAcg+JNCCGE5BgUb0IIISTHoHgTQgghOQbFmxBCCMkxnAULF7k6+7lOdu7Kcu7cOVi7Zo09Okg237rMWyOEEELGB7Pft8JbGzwLFy3Cxo2b4DiO2dalrspf3WjfR8ubEEIIyTEo3oQQQkiOQfEmhBBCcoyA399tvvqd9sFvQgghhIwwVpA9TdZVq8velodLy5sQQgjJNSjehBBCSI5B8SaEEEJyDIo3IYQQkmNQvAkhhJAcg+JNCCGE5BgUb0IIISTHoHgTQgghOQbFmxBCCMkxKN6EEEJIjkHxJoQQQnIMijchhBCSY1C8CSGEkByD4k0IIYTkGBRvQgghJMdoF2/zrdDOHwwlhBBCyEjT5fvddl13emuyoOVNCCGE5BgUb0IIISTHoHgTQgghOQbFmxBCCMkxKN6EEEJIjkHxJoQQQnIMijchhBCSY1C8CSGEkByD4k0IIYTkGBRvQgghJMegeBNCCCE5BsWbEEIIyTEo3oQQQkiOQfEmhBBCcgyKNyGEEJJjULwJIYSQHCPQ/pHvTp/+JoQQQkg2aNdl101b9/dbaHkTQgghOQbFmxBCCMkxKN6EEEJIjkHxJoQQQnIMijchhBCSY1C8CSGEkByD4k0IIYTkGBRvQgghJMegeBNCCCE5BsWbEEIIyTEo3oQQQkiOQfEmhBBCcgyKNyGEEJJjULwJIYSQHIPiTQghhOQYFG9CCCEkxzDi7eoXvs2Hvu0/QgghhIw8VoONIHeocfu6rtg1Wt6EEEJIjkHxJoQQQnIMijchhBCSY1C8CSGEkByD4k0IIYTkGBRvQgghJMegeBNCCCE5BsWbEEIIyTEo3oQQQkiOQfEmhBBCcgyKNyGEEJJjULwJIYSQHIPiTQghhOQYFG9CCCEkx6B4E0IIITlGwP82qPlrVwkhhBCSJVSW2+VYNjrWO/bT8iaEEEJyDIo3IYQQkmNQvAkhhJAcg+JNCCGE5BgUb0IIISTHoHgTQgghOQbFmxBCCMkxKN6EEEJIjkHxJoQQQnIMijchhBCSY1C8CSGEkByD4k0IIYTkGBRvQgghJMegeBNCCCE5BsWbEEIIyTEo3oQQQkiOEbAf9ta/3ge//S99E0IIIWRkaddgWXE9XTZ0XqflTQghhOQYFG9CCCEkx6B4E0IIITkGxZsQQgjJMSjehBBCSI5B8SaEEEJyDIo3IYQQkmNQvAkhhJAcg+JNCCGE5BgUb0IIISTHoHgTQgghOQbFmxBCCMkxKN6EEEJIjkHxJoQQQnIMijchhBCSY1C8CSGEkBzDinfHF74JIYQQMqoQkW7XaReurNPyJoQQQnIMijchhBCSY1C8CSGEkByD4k0IIYTkGBRvQgghJMegeBNCCCE5BsWbEEIIyTEo3oQQQkiOQfEmhBBCcgyKNyGEEJJjULwJIYSQHIPiTQghhOQYFG9CCCEkx6B4E0IIITkGxZsQQgjJMUS8XfuZUP2jHwnt+GgoIYQQQkYU0WDVYvvf0mVdoeVNCCGE5BgUb0IIISTHoHgTQgghOQbFmxBCCMkxKN6EEEJIjkHxJoQQQnIMijchhBCSY1C8CSGEkByD4k0IIYTkGBRvQgghJMegeBNCCCE5BsWbEEIIyTEo3oQQQkiOQfEmhBBCcgyKNyGEEJJjULwJIYSQHCNgP+ztdnzomxBCCCFZpV2T3TR9Tlun5U2GHf/h0mUKjl2Th24knPzt5EYSPxop1xEn9WITgRRcJykuDjegLmaXui37zXFzTcBc5/uRLfzwO+KgK5l1GlZKXOdwRw9+vLo6/xgh2cCZN2++PH/2B6R/5s2bi3Xr1tmjg2Tzrcu8NTIeseWZi6TUDfcGKtAozop45gkhgfLkPkxINcjT3RFmpkJvL7wdFemUqFAI9fFi1MZK0dhaibo2cVHJA9luS+QhmQoiGEghLxhFSaQR5Xk1qMjfh5JCiXOkDqXhZqlSJ+AY8Q9KvN30ZGQEmwb9I6E5LhpiIdS2hNEaC8qxzN+3gIRZkJ9AZUEcxRGp0KQck25JecbT3hXNC5sTgpg2pjooG44XJx/ZtCdJ/uht1+s0riMdXzK6mP2+Fd7a4FmwYAE2bNhoHiZHne7sbp3iTYYVfZrkwdoTmIC7i9+MLeFZCLhSuo0QpsCXv4dFX8J5zX9Bvoi5MlxlqvmdqGey1NWUCE9TvBCbaxfhie0n4MXdR6G6ZSJaEwEE5byQCEBAlipQXbEWOpCQ7EnKsjCUwuSiahw++RmcNONRTC9bh6JQVITc+9F6SPYOGyY9glQ9sKspD39ZMQWr9hQjnpT4B/aPc6ZIShrzgkkcNq0BZy+pRpUIuUHTPozp7YqffkWfUkfuU4uE2dDkYOPuIJ7fEsb6PQFUNwTR0GbvV0HYRWVxCrMnJHHg9CQOnpZARUUKJSF5+uRa25ypHmc27mT0QfEmOYl5hMRtC07DL8reLwWZPlle6SUP24jglcYq4BE3ii/WfkvK/6C3b/B43pr0BMRqTiTy8Zd1F+L+DRegurlMhC5kLGpXLObO9CdUz3PBWHciIMmUNqPHMbdsBy5acgeOm/GQWHhh479WBNQiHmqW+mlyginc/vwMPLW1HOGgXxaI56bCMRL3TcLxwtM0xRMOXr94N16/ZDecpObI0NPaFU2jCnVKLWp5PFxJ96MrI7jpkQI8vTmMqNQdQrI/KOdo5cvLKktatiTleq18qX/zqpK45Jg2vP+ENkTy5R7G5Fnxzhupx59kF4o3yUn0EUqKlf3tiisRDeR7hVyWSi3zQDuYktyFDzf8XKz/wUXF8wauFvJiBb9cfQT+uPqtWF1zAKLJ/I4flGE406oBe+HLeklkn1jjT+DNB/wO5fm1YiaGzPHBZq/1V64X4f7R43Oxfl+R55eX4Kzhp9vBEdPrcMkR2+ShsoXVcKFpN6kUwd5ZF8APHizE/a9EUNti72VQ6l8qyirgel5hHhARVxABAvIgtYkox5JAW1yWck6e7AtrhUrO1RaEiPh78PQELjujBaccEEdKKiNaCRiOChcZ3VC8SU6iTa+vhA/E3SVvMla3PmTd4ZrSU+ypQFAK0IB5EP39blJ8SUnJ6D2gQ0L8izkRfLbuBlSm6gcsSRpNJeWksHzvwfj9ykvw6r4DxR+Nmz0mEfWWmURtT1csPAfFkSacO/8veNPiuxByEu2hDzSrNG16v+5ePg3/21IuezRNmuCRSE9f6POhKXZx4dJdeM08qazIrmF4HEw+SjaiKeoY0b79f/loFjHWFoeoiGxByMWS6UkcNTuOg8vaMAdtqGhpQ2FrHIGWBNyoXJ900ZIIoE7czmQeVjTn48VEEZZHC7FPKlVhE3NbATh+XhyfO6cZh89IwtE2d5PPJjpkDELxJjmHPj76947it2NNeKF5wNIxgi3oQ6frrXV12LtuvbiNaNy92xwrnjQRE+XBrZw/B4UVFe3nKro+YORa7X+/qOkPODD2ijz4XZu0u8cEKcFp2LXRCtz68ofw8JaTTcGuMmoZRHyGhI2UI5KbdAMoz6vFlcddgwMq1sghG5eBZJGmcVdzGNc9tMgI1+hD4iTpiosAXve6V1EatuMmBvMYKPYxkj9y/eMbw/job0tQ16rjEmzZN6XMxUVHteHipc2oqG5E24vNaN2lVrNY2yG5TAcwaNjqjxcHvU5dSHZGpILXjCAejZXht22T8KqIeUIiq10crWKhXyFW+EdPa0Wh7cEZdDrI6IbiTXIOU6bJ83NT6YewKzRlv9LJTaUQjESw46Xl+Pf13zXCHcrLk4IxhEDAG+Ij5yQTCSSiMUycPxdnfenzmLxkMZJxKUHFu0EJuMTsnOb7cXT0afGib/HW34G1QF08X30EvvbEtQgGHDNKfDRZpmpBtoql+JFDb8G5C/+AgGtHhvcni8xvPeDi18/OwPLqUrs9KtLVFVtVeu2i3Thr4V4vhgOPp39P5Rbipw8W4Np7i1CYZxKNPKm4/OjtTThzcStqfrcPsY2tCObJc6KPipxiK4/dh6l+dhqNL6tqXBeKkFenwriieR6ejpcgT7Y1JYsnJ/CXj9cjIvFQ7wf1OJNRzUiKd9+lGSEDoLvyKCWi3LR3H/7vfR/Bny+/Ag07dyGvqAhBEW49X0VbnaL78ooKUb+rGn/4+OX4w6WfQrSpyStEM4sfRMpJ4uaXLsV1T35FfiRBKZC1aV+PdJe6bKDS7SBfLMJfLX8/fvLcZ+EGoyZ6/ckmPaU5FsTyXaNZuBVNJ/DklglGJDsJZT+x6RORFcG88q5ifPsfhUa4tb/60pNb8eyXa3HUhp3YfeMOJHdGEcgPmFHn+jjKnUdxIGX6s/WN/KjJJ9dY69r0rqiA67NhnGxrgSq+oEyeoZ8Xr8VvSlaLP7aytbo6iNO/W44muVUar/7cK0J6guJNMouUULtWrMTvP/Rx7Nu4yZRyXrnXK3qONnnvWrkKv//gx1G3dZsV+QyVeL63MRHqHz5zJe7f8HopbsN2Z79iPNLYODlOAA9tPgO/eP5ykRpRHNndnyyqjYbEchdFG4QgjjT6znm9VDYGhwi3JPH6+wrx+2fzoI08BXJb7/pgPS49vB7RX21HfEWzyU21miOSh42i9A/GyvGVpjm4oG4pTq47GMfXHYoTag/F2fUH4s/RSrxJ9mvh2bVCYSt5HiLsh4aa8EDZK1gWbBGfHWyrDeD8H5eblg+FAk4GC8WbZARfZOu27xRr+3OIt7RKwTYwodCz9ZqW2lr80VjgWsiqBZaBEk8C03e2f7Nc+7dPlR+G/9MYWJxHFhs3zaN715+DZ3ccL1v9y5s2I4ZyrqR5tJMQgYymvJmcB4A+JloBfGhNBDf+q9AId7FY3be9vx7HFDSh4Ve7kKpPWn/l5LXJAny+aS5eJwL95ZY5WCPbB4Wa8fGCHfhB8Xr8unQ1flWyBmeGa/Gd4g29xkcfdfOsiisRK/y20lU4NtRgtjfVBPC2n5ci6nlAASeDgeJNMob2X//1yi+afu2B4ItzukhrP/gfP/kZpHQk+jBjg3Hx9/Xn46/rzkVArFmri6NZuH1sHIOiTF9/8mrsaZtgBKI3QdArTP94+9bYQ9OvWaCvf33s9hIURlzEEsDP39mIQ/JaUfub6vbzmsTS/mzTPLyhfimWJ4rwhcKt+G/5i/hT+Up8sWgrLozsw1GhRiwR63lSII4CqfDMD7YZ//vCijgQdwO4qXgdFokfuv3f9RE88qq+eya+jM1bQDIMxZtkBLUGN/73CTTs2Nnen62oICfa2hAXpyVnVytat/0+8JSIv39U99du2oKtz71g/O563WBRb1Ts9rZU4revvB+RoA4GUb9zqUS1cY2Ekrhn1UVwAjGzPZ4xfdFBFzf/p8CM9tY7es05LTh6Zgz1v9+NQJ6t4OgrXmfWH4znEsW4p2wl/lq+AudGaqDtEi0iuPretgpwyHM66Ypu28lX7LG+0HP0tKT8/U7xRrG4A+Zd8M/8oci8stavWgAhXaB4k4yg1vYrf7vPjChPby4vmTQRH37gr/jg3/6IkqmTOx1TVLQPedMbzPHXfvkLVl0FPU/9evHuP5l3w4cNLViDUdz4zJVIuH4LQec45QYqRgE8uOW1Zj718Y5OPdvc5uDOZ/Og07yGRY3ffmIUzQ/WwW3VyiHwZLwEH2paiNeJWD9Q/goWi1VsxFqut49l/8S5P6g/6tWsQBSfLNhuKow1zQHct1ysbzkwTHVRMo6geJNhR8uhlpoaVL+6ej+ru2TyZBRWlBsRnzBrlnckDbl4znHHIBgJY/axRyEYDnsln4iT+LXj5VfQWlvvnTwMSJz2tUzG2rrFWlTLDnW5S3M8D89VH+VtjV9UDO9bEcGexoCZAvXqc5pREE0g+mqzGcBW6wbxyeb5eHNkL64p3GwmVvFv/XAJdnfotDpvztuLNolEftjFn1/IE5NepDy3HzuSBeyYR++P/UfI0FCRrdu+A/GWFm+Ph5RQO1e+iufuuBNP/+Z2bH72ee+ARcVdrepHvvcjbHryKfz9i9cgEYuaY3klxZi85ADMP/EEJOP2oxWmid1zg0WvvGPFe6WAH1i/fE/Yn5L9HfnrxnnrJq7e8fb9w0g44ODVPQfDCdgPsoxXgiKI/xbxVos7IusXH9OGtheb4LalzHwEX22ZhclOHJ8u3GZGgVvtHD5LuzvUb/W+1EniQB19LgL+0rYwWlttEz4hij4K9nHoWNsfl5Y3yQw6ujylU52mlUpacKmwP/HzW/HUL3/TySpXtGlcXeOuavzjq9/EthdewsJTT8G777wNn3jkH3jDjd/E4RdfhLpt21EvLiUiHi4oMB77fg1EyPXUuBvCY9tONeHaGA4NFQb9rKYu/XW738avJFmDiNuKcKrNbOt+c8YA4t0zOqNXCtUtVeab4eMVk5Vi1W7Yq59fdTGh0EWwGIiuEcEMOtjrhvHP6AR8s3gjIloI6v0a+q3vFzYcF2dH9pn73tjmYM1unUtA9xPSfyjeJCNECgsQSJu33Kd9S/Z3V15aSzqFqgXz8cG//QHHvOcS/OcHP8H3jz8VN599Ie768Cfwl89+wUz4csv5b8Yt574Rj/34ZsSksmD8FNdfAZciG43JPNRH7Xezh4OY/KLO23uTaZpNOE04b99PEBdxmBFdiZTE7S17r8dBzY9iVvR5FKbqMTW2xoSsrzQNC+JNNKldDeNcDSQf6lrs62UTS/QNhQBSjfqFeWCr3HOdaEXfvdZBZIOZ/GWoLAhp5U3nqwd2N+m32+1+QvoLxZsMO04ggLIZ0xEuLPT2DAApxZa89iy89ec/wrO/vRN3fvBjZtS6viqm+Na5CrUr5kpbQyOW//mv+O0l78MLd/0RTlCF2FYC+kMsXqheGSEfHhwUpBpxSt2dOKX+LyLc+Xjj3h8iTyztS6q/gpiTp3KB0kQ9XldzM4qSe7Co5RnZMzyltwpRQUjyyh3nP23JTt+a1WnJ9fa6CbtDm62PCDUh7GiDuXmURhSNRVgn1DGR0i+Rmd2EDAiKNxl2tCzUD4tMO+RgK7T9RMV43mtOwCmfuQz3fPrzeOlP9yCVENtIZ9foRYwDItjx1lY88bNb8NiPftou3P0T8OEvuWOBAvyv5Bw8VXIukk4YVYmdqEhsxcb8QyQ0iZObku192BOegfUFh2J6VK3v4SjBXdOPOrloN5xh6sPPTSQv5bYWhG2VrL5Vnh9tGo8EzPaCYCvuKF1lPvCSDTQOO1N5Zl0f7dK8kWu2J2MHijfJCDqo7LCL3mje5+6vFZxfVoIzrvwMHvnuj7D9peWdhL87P3RP+145rp8YffEPf8bK+/9hPnbSn4pDJKzzpmuB2r849oW2VrcGShANitPPUYm/q/MPw6T4TpQl9si+InGFIuQHYFpsA86p+TWeK3kdgsPQdKtWd0IqQEuqliOV8qd2HY9IXiYczKhImjypbgzAjbsIlgbNA6NZrdPgGkEferYPCPsYO/hvvNRs54VcLKySCuoIx4PkPhRvkjFmHHYIFp52irGMe0OFWS3sky79CHatfBWv/PVeOwBN9k+YMxszDj8MblIL4g6B1fUJs2dh2kHLRKjswDgVa/2wyX++/xM0Vu9uH8TWEyrYxcGYWD46RebwlJ5hiccDE94rEVRtKMI/K96Nx8vfinuqPoD7Kj+EOydegZeKTxHxPhy/m/RF/KnqI2gKTvCuHho6MUlhOIajJusX1Dryqit6pON4z+flKiqEqbiDY+cnzKxqLTHghdUhRA4oNK07mnorliOrmObxlXuk7wH8O1Zh+t3nVqYwscw23xMyECjeJGOooJ7x+c+a73Tbkqt7VHR1kNrcE4/H8//3B4Ty8719Ls771tdw9tevRvHkSWafdwHCBfm4+Ne34E0//i7Kpk01fd0+et3yv/69z2lZ1btIIIGTZzxkrhkWIRNPzbzostT4akOt/gu7YbMeNEf1WEDWdb/EUSOibkjYuL92zn0ozq8X73pPSziso9xzQzJ0NjP9ZvaAYivJv+CQKCKavbL5mT+WIHxoCZzC7BV5eov13dzn4iXm9bREysHrltlXIQkZKBRvkhF8odXJVt72i5sw9eADjSVsRbIrLirnzzPWdfWqVaq+dq8s1zz4MDY98RRa9tWYfQbZn4zG8Mrf/o7V/3wILTW1Ymp1WNlBEfLNTz1jxLvb4NJwXAfvWPprEYhMvRftS07XpaLr6dtDQNLpunGcs/BPko9hWe/d37K8BMKB3lsmRgtFkQRKIwOb014fv7mTkjh5UQw6Vf2qXUE8tTWCfBFwa32PLPocarCtUuR+vXWmGSyn+95wZBRuwm8JIKT/ULxJxmgX8FAYb/zBDVh0+qlm26CH2kssB5MXLTDf+Y632PefFW0C/+9NP8ffv3Stt6eDlJR8D377Rtx/9VeRiHWey1uLZhV7M396X0gUKouqcUDlKk/ozZ8cQuOrw91SuOyI72NSwR5JUu99uXqoXARxVnmrWR+92HQcOLkR4ZDYqgOMrKvf7D69BVFZ5oVdfOQ3xWg7pBzBqpEdD2CeK8dFSNzPW6diezLP3IT3HN+KhRO1vzvXnjkyGqB4k4xiBFz+60dGJi1ZjJRY17ov1iyFamOjEVjdl1daaj9E4k1m4qPTo4bz7cjcdLQc12Nm7nS7qxPGrz76vA1SbrpSmH7h2K8iL+iLfa4UpvpOvIpDCodPegGnzHpI8qLvn7QRC8m0cw/YbebytukdhWmWuMUSAZy1YI/cUO1G8fb3A33sAgEXR8xJ4KOvUXtXrF4R8ffcVoqyd0xCMjYy6dU4a35rLv++bSJ+2TbF9HW3xhx8+vUt8uzpWd09wYT0DsWbZBwVaxXZbc+9aLYXnnaymYDlY/++D++563a8+cffw4KTTzJ942Yu82EgUlwkYUa8rZ6xdQsXhaEWfPTw7yPW3jo7CsWsEyrcGnMXB096CVed+EXZJz9nIxb2jJ6RE+TaBVXNqCqMGX8soyXNGg/78tzBUxpQWWxni+s7XZ3RdDkJB1e8rgVTy1Km2XrFzhAu+EUlJn1iunnTOlP4FQ1d6MiL37ZOwndaZyDf0VAdPP35WpTrXDr6b4DpIkSheJOMo33X2rSdSiZw4feuxxlXXYGC8nJjUZdMnoTJYpFPXnoAiiorUTFrphH7ISHhTVy0EIFgqF8Fo56jU2SePOM/+PChP0V81Au4jVdSLO7XzHgEXzjuKwik7GtQA8k6tQAvP2kDivPS+/uznWYbvgrvpOI2vO+orVJI9d4N0BP+NXlBF/d/qg6zJtipaF/ZEcTxN1VhyzmzkDc9LM+lH+bQ065edHjjIiri/MWm2fh+2wytMqla48dva8TMypS2pA8qXYQoFG8yImgz9tlfvRrTdOBa0to8OvlKu1BLiafN50vPeR0S3odHBoMWwPqO+TL1pz993h7GinUDOG/+X/GRw34iZawouCmEh16gDy82PioQb178e1x+1HeQ59jaxkCEwJwraS4KpXDp8RsxsUgqV8YCNwf0lBFGw7ThajzmVLTgsuM32QLKxGtwaDrVui2Sus09H6/HQdP0tUBgd2MAF/yqEj8sm4/oYeVwwsYGthcNEiPcstTKhj7hj8bKcFHDEtwbq0RQ9oXFBP/hW5twzqFRcw4hQ4HiTUYEI9Rpc513Z11rH/Wyc1+PiplqfQ/u0dTJWeaffBLmHHu0Lbn7ScepDl4/7z588+RPoyBcJ9taImtBm+3C1o+Di6LwXnz31I/jnct+3S44A0hqO3qNtjhMKojjypPX4+S5+8Q32xzffXptH3vPdMRxMGi4OpXp+Ut24fITN0g6h2f6UptOoDzfxd8urcf5B0eRSDqIhF384r8FOPWxudjzxlkITO67myUdI9ae0yZ5P5rPJErwpoal+ETTAlSnIiaPi/Jc3PeJOpwrYesgf9OkP8R0kfGNM3fefPOLNP9kOW/ePKxft847PDg237rMWyPjBS2u9StaPy39EHaGpgyqxPWbLfXVr19e+Fb7xTBvX38pmliFd9z6MwQjtiDWaJzTfD+OjurEJf2tEOg0owHEpIC9+fnL8cCmM0RIkmafZeRKXU2+Pxo5LoJz8dLb8UZxwZS+MT645uSu+FmsC/2Iyq66AqzcXYKGto735DUO6/cVobopr4cwrSfJlIODpzSiOJIYUNwqC2NYNrkRlSVRhNMs7eFIn4+fzqSk5eXNYbzlllJEE0BIrPKZFUk8dm09dl+3Tb/sIuc6KHSSRnjjct/1O9yKeqFr+iTo/ORaKahPhfB0vAR3RavwRKLUtBzodYoOkvv4Ka244pxm5Klgez4MZ7rI6GH2+1Z4a4Nn/oIF2LBho3lG1MgxFXRdmnXBrMuC4k2GA1MkyfMzFPFW2gV8Xw3u+cznzec/zWQrfsnbA3pd6ZRJeNutN5tXzBRr3buDEO+O4FIqWvVzcccr78ML1YeLZWgLZjt+WBlcOntGf4f649QQRDhEDPODcZy34M84a97fxEreK6fYdAwyi3tE02zuo0lfZ5yAi7tenIYnt0zoJlx7tk46cuGBu3DqvH1mV1c/+kKLJo2Dej/cafPx76vWDxrFAr74p6V4ZUcIhWKFr7yhBjU/q0ZqZxRPiBj/uHU6opLXkwIxlAaSKIJ+lcxFm/xtdIOoSYXFsg6jwQ1BG8I1yjqOIJbQZwR4yxFt+MiprZg/Ua4zPUW20CVjl5EUb1MKmOfZ/6UN9BdHyDBiHlBxhZUTzOQuR7zjIuQVF5s+czMNqjfRiy61b9t8tETQb3svO+8cBAJ2pjUr3IPHvzwgpfzC0k245qQv4PrTPonTZv9DrMpaM4e4bSrVUnk4fjQq1nbiDh2IprbevPJX8cFDfoZbXn8xLjnwl5iUXyunZUa4FfVTRUeLCDMLnFYiPGf7nXsOVC3uC5ftwmkq3LKu56df35fTVKnvJvyegxkyvt+isSjLt0Kruwq8FnMn6eI/sTLT5L0mWYAtqTw8kyw105n+OVaFP8Ym4r5YJf4bL8eqVCFq3TBikt5kUix48XTBpCSuOKsFj15Zixvf2oQFlSlv3noJJ4PpImMIU5zIH/1vF95250q1sbyNtWMOiOU9Vyzv9bS8ycDQh0ot75tL34/toemyMbSSyrfAg6Eg4m0xbHryf9j81LNo3K1zlrsorCjHnOOOxqyjjjDf8n7xD39C3dbtOP/668yz3IGL85r/jiOjz0rxaYVvoPjeGYs4GEM8KQX6rmPxyOYzsbZ2NpriFSJeEQlJ+2g13dq3b3LEXGf6kc1axz7FT6PiOCkUhOoxrXgfjpr6JE6d+SCqireLEIqqaLhqDZuld8EI40r4d72klndFWhw64n/uAdU4fX5Ne16NdqHSeOrUPodcMwGtceDoOQncfXkD/nRdAz6zZ45JmZ4zqTSFpmhA7q/t11Y0aUF5lCIhF5NKXMyvSuCkRXGctjiGqTqKXIQ8ley4V6M9L8jwMSyW93yxvDdukOdMHhx5eKxBo89dl22KNxku9Dm6t/BsPJN/pN2hT9gQUP/0QdWlWtrafK4D0hS1wtUaV8tbj+vHTwJSoqbiiY5wZX/KCeD9Db/GnMQm+/APAfGuHe3/DoqQIxRFrK0cK/ceiBd2H4FVNUuxqX4u4iq6ghb6Ld6bWNrcHpIohINAfiiGSQXVWFz5Kg6qegmHTX4eJbINNygFf77EVNOeXcFOZ3/xtpmhFvf5S6pxxgKxuLUEGSXx7Q29jyrEtz6Rj6/eWwT9zPcNb2nE1j1B/OixQoQlHdpdcflpLbji/Gab1LgkSu6lXmvGUopwmxe4RaQh4p9UsZZNP+2jPQ9IZqB4k5xEn5/aQAW+V/YJU5CZJ2wEMM+vhz7YBm9f3AnjSzVfQ6GUsMMdm7RgjbilUkE8LwJ+/f+uQtINI+gk8Nmjv41Fk54356gYizSbftGIWNohnd/aXCzH/NjJYmRybWB0Fm+bcNPHbZrKdd753BFujWuL/D38K5VmwJo+M9PLk9hcIxUyEeZowsHXL2jC+09ok0qjnt97okZ7msnIMZLiPbh2REK6xUF5qgaL4mtNA7IpKdMVLkPYh9m69PA0Dhc232OEOxNocOosDqrbqvC9Z64QaQjgzDn34ebXvxPHTHsc5WKhqysLxFESSKLQCLf2cdu+5YCJu+ef59top1245+eOxe2jwwZue7TANJfr06KtI1tqA+Y+FEVc/Pq9DXifCrd5lNLuTQ+OkGxA8SbDisrRJU3/h8Ui4K6UbCpR7SI+Ek7QhY4KPrHtCRzV9rTs0HhlChEuEeKtTVNx+b9+gQUVa/Gtkz+Njx7xA1REmrTol38i53KOOrVajfOuzkVUqN/gCbcrIp5Lwq1sqQ3iq38vsuJr9ui9AU6cH8cjn6nDmQeIqqvFnWPpIuMLNpuTYcXKpzxYbhxrwovxcMGpqA2W6R57IKNIYesmMT25A69t+ReqkvqFLZFxKYEzFbr+dPa0VuG2V96P9xz4S1QV70AqmSdioCPHx07h7zeb/29LOc4+YDfOzKE+7nT0fv1vUwjn/7gcBWJl6/N60LQEvnFhEw6dk0Aq3vGsULjJQGGfN8lpjIDr86QPmZvyjZgRQUe8B8yIIg3bi4M9lBHMT0eEWkNRITPvgI9Bi80NuPjd89MxuaQNZ8zPnT7u/XGRlHv1vAi4zmG/dGYCxXkw72GP1XtHRg72eZOcRss+fcCMhIqQqpjqfGAj4QJO0DzkGgfzoOsyg9gfkXkrWsI2e8y+sYbUT3DWwj0i3LlpcftovHUmgCPFyj5uQQJlYSAoabNJGZv3joxNKN4k42h5OJKODD8qelWFcbPMZevUj7d5Vly77TtCcgmKNyGkT9JFjkJHSPaheBNCCCE5BsWbEEIIyTEo3oQQQkiOQfEmhBBCcgyKNyGEEJJjULwJIYSQHEPE28yH5c2KZVYJIYQQkkU65FjW7H+LmdaRljchhBCSc1C8CSGEkByD4k0IIYTkGBRvQgghJMegeBNCCCE5BsWbEEIIyTEo3oQQQkiOQfEmhBBCcgyKNyGEEJJjULwJIYSQHIPiTQghhOQYFG9CCCEkx6B4E0IIITkGxZsQQgjJMSjehBBCSI4RSPtoqLeatoMQQgghI4p+srudbiRZd9HyJoQQQnIMijchhBCSY1C8CSGEkByD4k0IIYTkGBRvQgghJMegeBNCCCE5BsWbEJJR9LUX++pLN++8EEIGBcWbEDKs+EJtRVs31KXaRdweJ4QMBYo3IWQY8MXaW5d/SYSwNzUba5PHYX3yaDRjAuCYkynghAwRijfJSdpFwgiGMwKuQ3AGJjwdojZSTv56y8zROUxV5JTochItKMOm5GF4Pn4+no2/AetTR6PWnY697my8Ej8d6xJHy3kZjhwh4wBn7tx55neuzVvq5s+bi/Xr19ujg2Tzrcu8NUKGH/PAil6oWCTdEFpTxSIHnkmXIUJOHPmBJglc67s2LKeXIDWOjmNFSv/GEkWyzGxd2REBjYSaZam/ZRtWb3EcCCY9ujRbjvibkmUKcbcAdanJqE3NQJNY1nE3H64EauPgh28joduaBwuC/0NVYIvZN1zxI2Q0MPt9K7y1wTN//gKs37BBfhv6O9Pfkv5O5G/atlmneJNcwgqCi4QbxPKWE7Gy7RhERUAyjYrRhNBOHFt0PyaFtsqegP5+usX8oBSJ597mRdhUdxzaEmXezsySF2zArPL/YXLxqxJn87O3BwZJe1qMbEsZgaBY1yVoNII9zQh20g1LXqjl3X6yR9ew7fESZw+Whh6WTalg9JSJhOQgIynebDYnOYUKt1Yyn2s+A8+3nDYiwq2oZV+TmIq/178ftclJsqdn0dHfmV5R1zILK/ecO2LCrUSTJVi99/Woblom+SRy2lVP+8CcL390qfms+Z2UYqLZrcCW5KF4IXEOXo6fjc3JQ9CIKkllQP4lJTf0QlPMpLmu2H3NqQoR/IjJU0LI4KB4k5xCBak2VYmXWk/SLbuzk2Bkzvli87/ms0XUYrLWvTKq8KXcIFbsOR8BJ+Ht3d+/TDkV0/U1J8uvW+PYO53FWtaNFxpnFzXuDLwSPw3PxN+M5YmzsMtdiATyEHTiRtTbwzS1FXX9I+FEUOtOkbX+X0MI6QzFm+QWUt7XJ7TgV83wBWSk0LBcNCSrZFVffeo57GiqAHFxlhGOo/xPpUJIJXtulTBCbSofer7tv25xS8W6Pggvxc8VwX6jGSXehEqpgIjtLc6iafHd4NBqUE1qltw/+/oYIWTgULxJTqEFvw5SaxeeEUZD7Etw1EI3g9N6EfdMY6PYffgaf9vMDTS55VifOBovJc7B8uRZ2Jk6AG0olqgHzDnWB/3ru6GifXYuGt1KWfdbJQghA8WKtymN+iiRCCGDYDgEb6D0EaYc1l/7vtRM0xy+152LKAqNqHbUTIZLrLsn4eYh5pZ4W4SQDvzfYMfvseOvDhq10PImZLwhv/4oCrA6cQKCXv+2L9Z2sF3mRNsi1QQJaFdygbdNCBkoFG9Cxhk6VqDRnSgSqn3dZo+3HDnUyt+dmpuNoAkZE1C8CRmHpNxQ1nUzJtZ/3A33OYaAELI/FG9Cxhk6Sr4wUCd2d8CsZ4uAxKDJnShrot4UcEIGBMWbkHFIIRoQEtvXvm6XDbR/PYXdyblmi9pNyMCgeBMyDgkgjgmBbbKWTdl0UOdORQJhb5sQ0l8o3oSMM2xDuYOJgU2wHzDJjoBrk30KQTP1qt02C0JIP6B4EzLeMOrtoNCpFdkOml3ZQJvs9VW1erG+zYdNOPKckH5D8SZknGI+c+o0eFvZwKp1bWqqVCIcWt6EDACKNyHjEGPlug4mB9YZ4cxm33ebW4JWzrZGyICgeBMyjpkc2AgniyavnQdevxQ33TSj0/ompH9QvAkZp6i9HXRaERGXLTQOASeFutRUWfO/XEYI6QuKNyHjFGvkhlDi7PaazrNHC8qQkrgQQvoHxZuQcYr2e+urYlWBLZ54Z6/NOomwZ31ntxJBSK5A8SZkXOOiTCzvsBv1trPH7tQ888oY+70J6RuKNyHjGDNczEmgJLDX25MN5XRMPBpTE5GSf4SQvgm0/1TNCqu8hIwnzGhvN4hyZydSssxms3USIcTdYrNO65uMV+yjL3+930D7tv719im0vAkZx9hZzRyUBqqN9dteYmQBfVVsT2q2rGlrgN1HCOkeijchBAVoRqFT521lA6vW1an5pkZBy5uQ3qF4EzLOMZ8FFVcZ2Ko2r+zJknJKsFG3RFy+t4MQ0hMUb0LGPWrpBlDm9XtnzeqVeoODJJrdKluhIIT0CMWbEGLIDzRJgZDIYn+zg4CTxN7UTFnnVKmE9AbFmxBiCLoJTAhsz1ajuYeDencyEm7E2yaEdAfFmxDSbm1PCazVLXFZknAJNuHmodGdIBtZawIgZNRD8SaEeDgocvbCcbM4UYrotTad16emSYVCP1TCtnNCuoPiTQhpJ+C4yHcava1sCKedba3enSTBa783rW9CuoPiTQjpoP1DJVo0ZE8429wStKHE2yKEdIXiTQgx+P3eEwOb4LjZa7JWazvlBLDPjDo3BjghpAsUb0JIJyJOM/LEZQt9xzuAFGpS02U9YZrRCSGdoXgTQroQQKmzRyRTTfHs9HsrbW6pscJtPAgh6VC8CSHtaNO5fmWsQt/3dqV4yKLRq18Za3SneFuEkHQo3oSQLrjG8g47bVkcsyYBy/8dqYWyztnWCOmKqVq3/y5khb8RQkjQiRsBz2aJYF4ZS001g9fYcE7GFd7PrtOvr8sGLW9CSDcEUOFsR8oNdS4zRpgUgoi5RVmNAyGjEYo3IaQTtt/bQXFgr93OonTqLGs66lxlnBDSAcWbENIt+U4LCpx6bysb6GxrwN7UHFkNsN+bkDQo3oSQ/TDf03ZTZsIWS/aUs8UtQ5tb4G0RQhSKNyFkP+yc4gFUOtuQcoPedrZw0eRONBUKWt+EWCjehJD98KdKDQeapZBIWEs8KzgIOCnUst+bkE5QvAkhPaIFRHlgl9i+2bS8gYbURCTdsLdFCKF4E0K6xVjfYnBPCazxpDt7bdZx5KPBnShr2a1EEDJaoHgTQnqlLLDbNJ1nEwcp1Lr6oZIk+70JESjehJCeMYZuCgVOg9nMjvXtmD53bTpnvzchFoo3IaRnRKtdN2RnWzPFRfaaraNukZltjRBC8SaE9II/6nxCYBsCrlq92WqzduA6QexJzfa2CRnfULwJIX2izeb5TqO3lQ10vHsKe12dbY3vexNC8SaE9AMHZYFqb7KW7PR7q2C3pUpEwjninBCKNyGkV+yHSgIod3aKcAa9vSOPiYe45lSVbGlnvN1PyHiE4k0I6RfFTg1CiHpb2cB+qKQ6ucBsUbvJeCbg/wL4QyCE9EYIMTPbWrZLi33udCQlNoSMZeyvTP7uN8BD99HyJoT0GwdVgS1SlmjTedcCZWTQPvckwmhDsbdtFoSMOyjehJA+Mf3NIt6Fzj4Rz2z2e7sIOQnUp6bKug5do3qT8QnFmxDSb/KcaNpsa9lAe71d7EvNMFZ4tj+YQki2oHgTQvqF/VCJi8mB9Z69mz2rt8WtQBs42xoZv1C8CSEDwMHEwEbR7exZvL7F3ZCabAxx9nuT8QjFmxDSb9T6DjstZuS5ZeSVU+MQcJKoc6eKdidMPzgh4w2KNyGk31grN4iSwB6vvzl7FniTWynxCRlLnJDxBsWbENJvbL+3g0nadG7IntUbRx7qXf1MKCHjD4o3IWTAlDu7EHL9pvORx7f696Vmm2Zz9nuT8QbFmxAyIMxwMSeBQqfe25OFfm/jUmJ5T5K1uNlHyHiC4k0IGRBq9eosa+WBHUjJMpt9znE3H0m3wNsiZPxA8SaEDAjT7y0CXh7YaazfbI72dp0AdqfmeluEjB8o3oSQQVGIhqzPtqb1iF2pBaYdnf3eZDxB8SaEDBhjbYtgVjg7vD3ZUk4XrW454uZjKYSMHyjehJBBoP3eAZQFdiJp3rX2dmeBABIi4BNkjaPOyfjBE2994uXBtxuEENIvdMR50NFZzrwdI45jWgH2pObIOkswMjbY70mWHV330fImhAyakBNHuWk6z65w1rrTkULY2yJk7EPxJoQMCtPvLf8nORtloUVJlgRcgo27eWh2S70dhIx9KN6EkEGibeUOinSec1eKkmwZ3xIN/VBJQ2qKVChS3k5CxjYUb0LIkAg7CeQ5zVbLs6Lg+spYCrXuNLPFQWtkPEDxJoQMDdd+4zu7Xxlz0IJyRN0ib5uQsQ3FmxAyaPxR5pMD6+EYkzc7Zq8GrVO11qamensIGdtQvAkhQybiNCLstHlbI49WIrS/uzY1XZYJ2cO2czK2oXgTQoaBEEqcvV7TeTaEU/u9XbS45RJ8QCzxbDXfEzIyULwJIUNCrV79ylhlYEvWRTPu5KHBrfK2CBm7ULwJIcOAizKnGmEn5m1nA1tx2J2aL385VSoZ21C8CSHDQlCEu8jZJ2vZUk3zpXHUpabAdew6IWMVijchZJgIosLZKRZvKEuyqXLtIIk8JN08s07IWIXiTQgZMrbfO4DSQLUR7mxZvRquWt37UjNli5Y3GbtQvAkhw4SLAjShwKn3trOBjjr3+71FyqnfZIxC8SaEDBOqlClUBrbZzSzS5FYghjxvi5CxB8WbEDJMqM0bQIWzHUnt986i1asxaXXLoV8+o/VNxiJdxFuecj7ohJBB4E+Vmu80inimjHBmBwcBJ+H1e/MrYyQX0d9Ox+/Hrnn7vN20vAkhw0oQSTvq3NvODg7q3KmmBYCQsQjFmxAybFjj28WU4FpZ163sSXjMLUSzW+FtETK2oHgTQoYPo96OeWUMbirL/d5J1LvToB8sYb83GWtQvAkhw4r5whdSyHOavX7wbCin2P0i2nWpybLOfm8y9qB4E0KGFWPlugFUOltFtrWIsY3pI4+DVpQi7hZ624SMHSjehJBhxR91PjG42Vjg2ev31obzEPalZph1Np2TsQTFmxCSEfKdeuShxdvKBmr3u6hxZ0qFIuHtI2RsQPEmhGSIAIoDe8TiVVM8O/3erpjbzalyWWe/NxlbULwJIcOO/VCJfmVsu9fvnR00HkknjJZUpWyx3ZyMHSjehJAM4aLM2YOQE/O2s4HtgN+ZWmSUnP3eZKxA8SaEZIyQE0WJCHg2rV79TOhedyYbzsmYguJNCMkgAUwIbDdN6NkScLW2k24e4m5B+zYhuQ7FmxCSEWy/dwDFYnmnsljUaDyCThz1qSmylTKWOCG5DsWbEJJBXBQ4zeZLY9nD9nvvSc0RIVfpttuE5DIUb0JIxjAy6aYw0dlktlXMs0UTKhF1870tQnIbijchJGNYqQ6gKrgFKTeLxY1EJOUGkUBYNmh5k9wnYH5c7AIihGQA7W9WF3GaRDL98d4jXeBIeBKHAJIi3VG7TchoxX88dSmu09Pqbauj5U0IySg6ulsLmlKdbc1YvSNl+XYUexru9OCriIh4c8AaGQtQvAkhGUUtb9XLKYG1dkfGxVP9t2GYpnqpPUxy1mNaYKXs4YA1MjageBNCRoQKZweCbiY+EOKKPlvBtn8dBBFHqbMHc4LP4dDw/ZgXelYKOz2u3/k2FxGS01C8CSEZx9i7TjLtlbGhWd92ohUr1ZYAAlIxqHS2YGnwYRwZ/jOWhB4Sa389ImiV02xRR+EmYwWKNyEZZWgiNVZQi9d1QygP7DRN2fZLY/3HarUv1mpBB8zo8QI0iHX9Ig4P/xVHRO7BwtBTKHH2yalBOSekV1nBlj8UbjKWoHiTnEIL/YBYcGrLeUV6lug9bDuyOlvx83t1s5k/nfGFc0Jgq2eF9xU3Pe47zUvN0aDIcQxVzmYsDj0mgv0XHBT+FyY568wockeeDX0+NCzj9CovXELGGhRvklOoLJUG9UMXsj7i34m2faYlwVpZ7fmno+IUCUQRCrZ6e0YSmx/BQAIBicNooxD1fTSdW8HWfNYpVR2xtvWaac6rWBb6Nw4L3Yv5Yl1XBHaYkeN6uq/PvmgTMh6geJOcQoWxMliNeZHlUlD7hX93IjCcWEExa1JhOKTwP0i5eWa7O1RAgoE45lc85l3acX1m8eMYwPTS52TFNhuPFvR+6fSk0wKr7Shwg583drCZ/tH3sUuxB/MCz5jm8IPC/8Cs0HKUODXm/ptiK83C1j9mScg4guJNcg8ngFNL78K08AbEUvmIuxFx4Qw69T+CpBvEWWV3YGZkHQJOqkfBUK3WQ9NKX8Ss8qeQED+SKXWhDDsNI4LZ5U9gdsWTEj8VSxun0YGNzMTABiwIPiX5GTJ5k5C8ddwUJjvrcXD4ARwV/gOWhh/GpMBm6Jxo2lee3hyu/lCsyXjHmT1nrlR5tdarCxfz583Hhg3rvcODY/Oty7w1QoYfY8iq1S3/m1LFiKeK7IEM4ohYFwbrIDIu69q36gtJ99jj5qcl8ctDPFkse63dmCk0OuFQI8JOtF9xzAb23tmVpCPSbOYaTyLixIyA24MWCjTJNWa/b4W3NnjmiQavFw2WKqr5HesPQZdmVX8f/jbFm+QqRgiygP6I+ksuxDEbaL5oHLvmz2iPNyG9MZLizWZzkrOYhzkLbiB0d/1IuNGOH8dcizchowWKNyGEEJJjULxJzmFaWl3t6LHrdHT9cVnrwyAkA7DPm+QUWvzaN8SSSDoRpAKj63UoMvrQ1vhgyh8QJ8+QY3oOCRl2RnzAmpnUXwVcxXs+xZuMYuQZTcmDu7X8ZFSXHCYFMRuPSN8E3Rhm1zyEqqYVpuAjJBMMm3ivF/E2au0Lt7rO4s2Sj+QUKtYNeTOwvfx4WQ/KHi2I6eh6d9pKs67qXMSChdDZ2wjJdSjeJKfQps94sESWOr+57pCCmI6uLyeCrRU/FXFCxgIUb5JzaFFsMIUyIYSMPyjehBBCSI5B8SaEEEJyDIo3IYQQkmNQvAkhhJAcg+JNchedn4AQQsYhFG+SU9jZsfQ1MY40J/0kvZLHx4aMESjeJOcobtuGYKrNK4i1YKaj68V5gl0c3Yn8RIPdR0iOw+lRSW6hz6kUxjrZxq7SI6UY9uufNKlId1ihDiWbMbnxeXlaAub54dNCMsFITo9K8SY5R7vdpM+st0pIb6hYq+NHSUgm4dzmhPSCFr7G6QNMR9cP114QmieIkNyH4k0IIYTkGBRvQgghJMegeBNCCCE5hoi3HfLDgT+EEELI6KCzJsuW/d8OLW9CCCEkx6B4E0IIITkGxZsQQgjJMSjehBBCSI5B8SaEEEJyDIo3IYQQkmNQvAkhhJAcg+JNCCGE5BgUb0IIISTHoHgTQgghOQbFmxBCCMkxKN6EEEJIjkHxJoQQQnIMijchhBCSY1C8CSGEkByD4k0IIYTkGJ54d/7sNyGEEEKyQboe67q4/STapeVNCCGE5BoUb0IIISTHoHgTQgghOQbFmxBCxjCu6xpHxhYUb0IIGWP4Yi2yDcdx0BLTNQr4WILiTQghYxCV6r881YBjP7sO1921G27IsQfImIDiTQghYwwV7q21cXz8p9tR05REUHWbhveYguJNCCFjjIDj4LlVLbIEUikXwaB3gIwZKN6EpKF9hSlvgA8H+ZBcxRWxXr09ipAxuYGwtyRjB4o3IUK7UEsh19SWau8fpICTXMM8s2Jy76iJIyBLfYJ98fafZ7XGdZ3Pd+5C8SbEY2ddHG/5xiYceflavPP6LdhRl4DrSOHHAo7kEDq63BWtrm1KyroKNlBcYNvN9VhSls9uakO9VFIVPt+5CcWbjHu08HLEMrn5/ho8t64VCSnTnl7dgtd+eQO27o0Zy2W0FHAaD41K+nIsY9NpuzLYndE/NH8ceYabox3iXFIQgCPZpsJ9+0M1OP+ajfjq76qBECUgV+GdI0RwIw6eF+EO6ggfISkFXVvMxTtv3IrAKHvFxsl3xElhLEs1rYYqZv71uvSdNqt2ct5+/7yRwA/HCQdM/+2aHVE4ci/UqiR9IPesJerfLxjxTomW72hM4jO/3IkieX4eeK4RTS1JDkLPUSjehAhtTUlsrBYrO60kk/IPm3fH8JXf7jJ9iCOkWT2iArqzIYkzPrcOh35kNV77+fWob+tf4ZsuvOpUkJOaQEFbHdywKGKeFAdSGYglXOyVQn7Lvrhx2n1Q15xEXM02PV/bYkcINxLAWVetxznXbsLZ12zCQR9dg9Y4re++UMu7VS1vySa9zcbylo0JItoVxUHzLOs9fXFzm1knuQfFm4xvvMLt7880oF6sEGtheseEkIj2Xf+tR6ua4trumEX09Z8nVzRh9bYYmlpTeHFDG1Zui9r4dnFGoNVJ4ozQSTpS2u0pQq3dAloJeGZTG+5+vB7X370bH/3BVpz3pQ044QqpGHxyLY6X5WlXbTDuNVeux3GfXY+3Xr/ZtFCMpHBqUM1tKZMOrTI0tkolQioXpHe0YtYaS5nHQZ/vQqmYaf4VSiXtwFn55pyAlP4rN7aaJck9urlt/GGQ8YNIGwJSoP32wdr2JvPZE8OmQNNj+mtok0Lw+jurkVLbZQSFaz8kevXNKRM3LZAjIQdrtkatIMu+pBxPSQVDm5UTcnqDWKjbmpJYviWKe5+qxzd+V42Lr98iQrwOJ352LS74ykZcfssO3HTfPvzrhSaskopAdX0CMblO/U9HxWBnTQKu5MVIoRZ+IJ7C374yF28/uRzLZufhvWdMQEmh1kLsvSLdk1TLOyY3Uf7rvSvQVhVZT0m2HXtAoZzhmtfI1sg915YXMhrp/CPstCUbzuw5c6Q80tq57nAxf/48bNiwwZ4wSDbfusxbI2R0o8++it6SD682fYJxsbC//q4pWDwjD2//9mY5wxZsasWs/MUBKJOCTl+/yQoS7O0P1+Kq3+4yLQJKUMrkt55YjtLCgHnFbY+I77a9cWzeEzctCU1iqYZDAeRJBUULa73MCLNfEsh2emq8YsDki1l6+/SPXvvSjxaZJlhtBRgJ/Hg4ErgjVj+kYqFx0f0j2XyfS2je6Fzmh39yjenq0Gfg0evnY/HUPLiSj/9+vhEfuWm79pDgiPkF+P3Vc6WGKlVTZueQmf2+Fd7a4Jk3bx7WrxcNlvuhz7hxdiNtu1vLm5DxgRZyKfkh/OaftUiIaKtI6fuwpx1YhKMXFOLiUyrsfjlP97+0usWISNaQCFaWhJDUJnyPhBTOv3u0Fj+7fx9uf6QW/3ihESvEGm+JpkS0HZQWBY2FrtZ0g4q5aYKWdMq+ytIgDpieh+OWFOKcI0twySnl+MS5Vbj6bZPx3fdPwy8vm4G7r5yN+6Rw/8e1c/Gvr82TSkJwxIRb0YJKK0saoutZkv5+0j1a2dH7rN0jmkv6uITzgibrtOdnSkXIVn5ke7dU9ixexpKcgZY3Gbfocy9lHI6+fK3pV1U9qCwJ4ukfLkJKxK8h6uLUL6xDQ7M9dsziQtz+2VnGdM2GeGjz54vb2vD6qzaiWKzfdLROoQPNtLm0VI7NmhTG3MkRLJqWh1kTI5gkBXZpmTg5VpIXQJFYsXlSIdGuAm1m953frd/RvS8raeW6yqgp+CX9XZdjHU2nwSRVM8xu95X29us8Mp1X+pxs2BPDmV/cgKCEVdOUwEs/PwDTpSKnXS6bquM49Yvrzb0vl33PfX8h3Cw902MNWt6EZBi/QN1QHcPuOmt9qPAdvbCwXZzLioO46MRysVxsH/CjrzRh0964X2aPOBIlzKiIoFBfEfORyGh8pk0I4SOvn4A7vzAL//vuAjwgVvJNl8/Ep944EW8+sQwniXV90NQIZpeHUFkYQIFY3ir4Jh80vWKeBSQbzFItNtltnS04/H+K5o32nboi/rrUiHUVqP6gV+hlXhTa17vzSv03A/DE6fpQwmsPy+7uP5JOHSv38MvNuO+ZepMP6rrDj6OGofmk50kum1qW2TeI+Pcb8bqx1bawaCjaXaItR35MCyNa7OsNhGmhiWZ4HIOfD50GUJIhQ/Em4xYtVP/4nzrTh6toc/SbXyNirc2zUtyk4imcf0KZaXJWtAD+z4uNCMh12SiAtPCdWBI0FrWvGdokeu7RpfjP9xbiqosm43ipfJTkS3pUhDUdeoL817irpaVOm7194ens7Hl9oRb6Hx+rw2U3bcc9j9ebiPXrOi28xWllSNGX3NqkhtAi682yrq5V1nU7PX+16G8S1dwXtS6a7H94vtMw9V+b7G+RpYahY7FVyPtTIdBjCXFqzV5y4xZ84Mfb8cyGlk5dGIrvj+ZRo8TzuXUtuPq2XTj3qxtx+pfW4+OSZy9tlFTK8Z5DGxrqrzabqwWuaBdJWGtqXp7ptlYh9Kg+2/rVsUzFRdF7pXm9r81FrdZ++r51pB9QvMm4pVmskztFhLSM07Jt8fQIXnNgkWla1AJH9y0Ra/WQuQVmXfuO9bUx/ehD1pCwT14mcfQKQB1gd8ohRUi2SPEoCUkXZ6U/IjcQVJii4r4ggqT965/65Q7cLXmiQpEufv66EWvN4LDESfLv1a1R/PjefXjHDVtw/GfW4ahL1+DQj6zCoR9ejUPEHf7R1TjoQ6/i8dUt7VaaEwzgy7/ZJftXyTmrcNu/a8wgw/Tw0ukIW9IvVqa+s37Dn/fgDBHeIy9dbcI6/GOrcNLn1uObd1eblhcnL2BaXpTu/NVdWoFYuzOKfPFT6m94ZVOb5G/H+brQAWE6LuLq26txqKTlTd/cjDsfrcOr26JmEKHm2QVf34Sv31mtV5hre0rHUGj0xjYoEbW89ZnWDQlKn2Pd0r+aRztqEybumUDTpvf/3mcbccAHXsXBcg9vfqBGxJwMFYo3GXf4heXjK5vNRBW6HRUL5D1nTDCTW/io8Kl7h1rjco4WdCu2tOHJlSIssp6JQrdXND4Sv9MPKTH922aXOH3vWUVkuIW6e6RyIOKlTbGaBzq75vV/3I2UjgT30HzR2Kn1qS2yf/xfA97yNZ1gZTXOk+X37tmDJ1c1Y0990swCpqKpWakupi0GIn7f/dMeM4ucjwpQgYSr7yurpah0l17/nrgh4Nn1rXjDVzaaV+N++vd92FgdN69P6RlJ8aJaRPuWf9bgpM+vx7lf2oBH5HlIaauKXq9p8PzyaZN81mZmOWq2o+KXHwXd0xhP4drfVWOJpFMHDypamdJ80hM0NXq6vimgAvaoPEfmng7gvrWnT5b+RDvq0tfVu2apzDle9rVb3h6O5I3jDWrQ83fXx70UddA17UMhIPfxVklvRVHQVHyeW6vtHsMbxniE4k3GHaawFFPkz0/Um/dfdVuni3zdUaX7D9yR7eMPKhIr3RY0Wgb+QMQnqNfJv5EsgDRWGr95M/PM1K1mn+xs1II6LcqZRKVP+8TLiwKSdt12UNOQwD6xKjWCJj9kqbOg/eTevTjlyvX4zC07jJDq60saT/ulKxU1FwlJjwqIucxPg6wbgU5rktY1DVtONa/D6ald895uO6ZZ/apbd+Jt12/Gy5tajd9BFWUNT/zMDzuYOTFsRl2rkGrFTS3j9353K9534xZsV0vUi0t7GLIdbU0ZMTb3Xbbz1VrXw+L3X56ux2vFsv/Vv2pMxcofka/hmTClcqPjEjRcfb1PRUyt77hJe+d09IR/nk62o1WIXY1JvLQ9iv+uacEjrzbjfxtasW5v3LTG6NwEJo/EaX+3mcLcS5N9r9tuqJe7pRJl163/utRXzHTZ37j1hN6v5yRuy72Z3LSScek5VSb0gVRayP5QvMm4QwukWrG6HlvRLBtaiAAfet0ETCgJdiuCkyeEUVRgD2iB87QUlv9+tsF85EHxCznr7Ham0Fjo9JZlhfanqyKxW8RmpF7f0nCCUgBPKNHXjbydEquHXm4yk9iIhOPh5c047jPrxCLfY4RWLT9FRTpP1udMCuM1ywrxlhPK8e5TK3DBMaU4dF4+iqUCpYW9oqP+Tdt0N+yRykLHaHiLyXtZ7mtK4EKx7u98tN7Kk8RXKwk6rkHHBvzy8pl45rsL8dC35uPx6xfgkW/Ox8fPrTRhhyRuj4n1ff61G7Fhp/0gjY/61SaVJBVCDckV9awqD2FvcxIf/ME2XPrTHea1K22R0HSqQOtkP+8/awLu+sJsPP/9hXhUwnvohgV4w7Gl5jlbvqkNK0R8/TR3h/9caZ+xtmKskErGN/6vGqddtR4nSB6/XioMF123Ge/49hZceO0mnP659Tj60+vw24dqTVw0EXlScdBVTYMGpd0XBt0nbp9WhrxdWilYvTuOYz+zFhvlN9JL1PpE463fBbjuzt1mXSnKD+KAhQXt22TwULzJuMIWhsDdT9ShodXKr065+fYzJoiZ1LlAaS9wREdOWlrUvq0F3Yd+tB1bqqNiOcEIVlz2xcUqS6aPBM8QhRLOofMLjCjJqpl/XfvCh1Ig2nzpcOq33xTr7/PRpvtZIkx6jt0BPLtOLFwpqD/1sx245IYt5otWKmB6TC3RyWVB/PSj07H8Z4vx0I0LcNtnZuOG90/F1y6Zgh9+eDr+/JW5ePHmxfjFJ6YbsdfKFEwT9f7s05FgaUm18bNW7oXXbcK6XVHda/p8K4oDuOXSGeL3AfjxR6bjtGVFxgrWe62tGNPE+r7iwol4/AcLMUMsYxVSHan9tu9sAdK6AjQdOlGPnUrUTnizszqGQz6+Go8sb0JErHk/r95zegWekwrCw5JOfWf+yHkFpp/Zlfi5YuUvm5Uv59q+Z507QK357jDp0qWYzU+vasExn15r+u1//e9abNtnBbdYrH+tmGjlQ5c6GY++9rhxV8w8G+pzsQhmewjioSPPilZBTKYJ+ulQTZZubt4Twzlf3mD6zE+7Yh12NCTNc5B+//uDf36TVG5e8sYGaCvL2UeWICJ53x4fMmgo3mTcERCr9c+P14sVqJaea14HmyQKrQWMWtZWDGwTrZaASXELp+XpQeuBFj3y//Qvb8TSj67G0g9bd+CHVuHA972K9XvjpiDPBBo/rXKcfXiJKYi14NeBUGZEUj+KRFuo2vSp03hqHpjJZ0QI1GnUde70zZIOnfBFZ2pL91rPnzclT663/uny5Y1t5oMp9z3XaJqldZ82vR4wIw/3XjMXj35nIV57eCkCKmDit2s6uq1/KqJm2lURjFMPLsHzP16Esw5V67T7/uB9jQljiSoavjlP4v0esYC3i6ip19oU/o13TcF/b1yIUw8pljCTJhxtPvcH9Flnk6YThv7jWwsQMZUg2zT/Gx1Y5cVR0aZozW8NMyTnffMPe1CUFzR5WChCf8N7p+LFnx2Aq98+BSXyjLmSHvVMhb49PNl1wMx8U9FQK37F1jZT6VE/ffx1XehgsvO/sgFvv2ErGsTyL8yz+aHXa/+7hqOT7JxxaDGOWlBgBNzvitDwtHlfr9F/iomD/DMVBhMnnXJXv/ttj9fLvdF0ah7qO+Jv+fom1EjeaT6kx7E/6LfwP/+bnSYdmsua3svOqzJ3zg+PDB6KNxlXaMGxS6yS9eK0PFMr72vvngLHK5jUyjAmi4jhRhHFb929GyeKxfOLf9bY0jQdb9uUQ7Kql9ZLAbtFLOFMFk1SJEuBXWQFV/7vqhXxNq0GneOnha3vNF1+2lwVeilItQ96+bYo/vhkA67Rec+/sRknf3odDr98LY741Fqc/sX1OP9rG/H0GrGq0wpb9WbulIhZN2IghzQ/t0h+mdPkj4b5nfdOwd1fnINDZucjLHHTeNvzrfNJ3yfRQr5Z9w52g/bxi3a1o7fhJ/fsMQMQNQ807Fsvm4G3vqYCYTmmXuk5iskLdV5+mN2SJ45U5F7UV79EtBS9ZsXmNvMoGGSpg900XhpP45+sq0h+8KwJePTbC/BGqQRqa78+S+lp6oQc024PHWSoVvzm3XLv0kphjZ96rH//JhWh1129wQySNHkn+/TVrumVYXzxokl45DsL8Mz3FuK2T8/CTZfOwP9dORtPicX/ztMq2tOr12hlqiMa9oDflaF/63R8gazoOYfMycfFJ5eb/XqmPlvv++5We6Lu8z3uAz1rR0MCf5JnS/3Vy3XK4RlTI7LueUaGBMWbjBu04NEi8Ed/22cKT21WPXx+ASrKwqaAaZGCcbUI753/qcVbr9uEM0W8fnrfPuxtSBpLxcxpnlZ4qV9lhUFMKguh3PRDB3HcAYU4eE5Be2GXCbS/d+7ksBmEpNHRZt4tXh+tplCXOnmKjpxW8dBR0lulIH1mYyvufKQWn/v5Dpz7lY04UgRal5+8eTt+9e8aPLW6BTtq4nYKVZNMkQzJo+kTQu2VG0Xzau6kiOSJt0PQfRbXzLP+56vn4m0nV6BAhdE7sp+Q9UBfp2kzvI5KN8i5zRJZff1MB5/pPxWmsokRcy813dUiTrWSpvqoizpZ1kh+7ZR968WqfW5jG+56rE4Eagsu+vpmI942H4FJ5Vrl8JF81NYBD42jpv+G903F5982GeWS5oCc7Fv1PaH+5Yt17LfMdB2YZzyWG3z3f+vw0Z9sQ6vEWX3TM3RMxnXvmYp/XDcPH3x9JRZOlGdAD4pfOrmOLvWZ0Lcj0qMQ0Z3t2PuhLRDqqca1QVtCvPO1af9Tb5rk3X8br5c3teH9P9yGlFeT6Y+A66C4vz9Rb7oo9Pyo3LMLji2FK+nx/SVDg9OjknGDPuOtUv4c9pFVpklXC9DXH16CKhHftTuiZgCRNsnmi2Vq+zC9CwX9jWjBbH8mUljKulpw110yBRdLQQod/a0BaBOoWmj2soxgwpdwtKlem4c1HecfXYrLL6gyzal1YplqP7h+JcwMihLLTfs1NT1amGrzpWIL6P3x0zetMmSssA+/ttJqiv4RNN01jUkc89l1JsnpaHPyH8TaXjotzzQX+34NCfHnil/swN2P15l7oOG/8ONFKIuIKImgfO3OXaYfWMPR8FSgtN9X80WFXPuWNV5+PHS/Tq7SJkavvjJl7reck54f6s9dYskesUDf8Rd/5dK/iBhd/ssdNg5y8htPKMONH5xuxbef6dTrdopYHvzBVcYC1/nl/ycWtKLXa3fA/c834f3f24rCfB3RbyN1+qHF+MUnZyIp91s1VIPSQ13D1Fca12yP4uxrNtpjco5O6/u7K2Ya2dZrEvJsH/uJ1fJMSGiyrRbx/V+b154One//n8834OM/3WH8NHGQfZ8+vxIfPW8igrot9JRePV/fNtDPy5qKgZyu+f+4pLOySKdo7f66sQCnRyVkmLEFkIv1m1ul0LaFj1rT/3yxyUyi8ezaVmMd6Ocm1SrRQWzReMqMjP7EuZV46Ovzsfy2JWJV55vrFLX0fvtwrenbdBPitPDzRTxDaDqM7yI2phC0v2kzCcYpV23AmVdvxEXf3ozP/UoE7cFaPLde0itx0lfi1CJW4Vbx0uZX7TOtb06YV4uK8h0cs6gAl51Xib9+aQ5e/tli0yz7oddV7lfY6pbOiV0gFQENW9F4aWvGF948CQfNzDfCrfRUwA8FDUeNYM0Hfbf6l/+0wq3Ywg1m7vcyiaO+F65pNhaxOUPrAiro/kCvoImrL9x6rQrsEQsKceRSnQynI/5aMfK3dP3QeQVwdcSipL2/6dRggqaiYANUy1o/LqNouFv3xXH5zdvNq4uap1o5+8rbJ+Pmy2bKM+YLt4ZlC/GeSD9iB9mlIUH7z7CeqPlpYuPlgbYgvPbIUvOst+eLxOVbf9yDJ1Y0mYpMT2Gb35nwrxcbzXv02rqlQZ1+cDGqKmwLFxkeKN5k/CAlx/f/steIrrdpnBZe5itcUogfKZbWlW+aiPuunYfnb1qMf319Hi57w0TMmRJGnlgRH3j9BDPqWNGCbeXWKFZ5r/v4BVp/C/KBYgtGW2j/6dF604yru/zwVIQ0ber03FZJk5lURA5PFAtPP//4puPLjMD+4rIZeODauXhG0vjCTYvw3PcXiXU2G5+4YCKWSaFdJCVDUMXC+Lx/mkJ5jhE+HxX4iWVBvOWk8vYCPFNoq4m+H61od4Hev3Q0fI2uHXilFZOAecda3+vWV+x0RHbQWOK2FUErL74w6+tdX37bZPzqMzNNRSw9LV2CaWcg91vP1Dw11rz4pxVEHWCmBKSi8YVf7TRx0XipqH/zXVPwrtMnIOAJ/GCera5XSMgdlStxca14qmLrtvFf1iUOv/z0TPM+v60kOibfPvjjbVgteW7GC6TlTSciAfzukTpTcVLv9M2DN+pzoRUdMmxI9U7+mntga1893A5CchotZ3aIJfCP58Vy8LZ1xqdjFxfisxdOxN1fnoP/3bjADPr50NmVOEwEbKJYZlrQBr0fhpZhZx1aYl710XVF/XnwhUZTwGVatExR67hm9q5P/mx7u1Xko4W+NotrU+9HJQ0/u3QG/v61uSZd+k7z/31+Nr75gWn4oBw787ASMzhpdmkIE6SwNYPVJf6aVjP9jJS6vusOfX2pVAp2/6guz5C8KSxMey0pQySSKcQSEgcRoP+92owCbwS2j+bLgXKPfvjR6fiPpPvZ7y8073M/+q35ePrGhXjhhwvx7PcW4UnJF333+kHZ/6Ac1w+6/Pu6eXjfayegWKxjTbqffrU2dbT6kDF5ap8lRb3UPnxdrt3SZgYH+vmu4yfeelqF3nKh/9Z9V7RyIj56W+YRMhVVPzWal/YOWkz48q+iIIgvXjQ5rXLkyDrwmZt3QOqxZrvrM6/pWLWpFc+sbW1/PicUB3H0okITwmDTMJ7QbPPaQiyy2rFljyp+xZqQMYuxxKSweuKVJtOEqAONTlhSiGd+sAi3XyXW5nlVOE6sUv1cploc+jqPFjKmqdUrbEyBJqs6zeRl51eZ5kxF+8b/8Xxj53eCM4WUuvc81YDPiXXmjxa2qBUEvO+sCXjihgW480tzcOVbJuHcI0WgZ+SjUgpPIxaStoAWxKYwt2nyB+LZ9PU/DY6UzJPL7HvRilq4+m3w9IFtmUKFJS5WnEb3aRGJ9iZgr1D7wJkT8Kdr5+KNx5RilljbWjEx6RWn916nWi3JdzBR8mWGHF9QFcZ8sbirZFuFzb//XRmelHU2kjS7fHG85R81RmgVjadOKGPrJYMXbk20P5Wuj/qkfdB+JDRMf8BaBxKmRE4/1KOTyvgn629JX2/7wq077PviEi9fwHWpXQK3PFBjngfzuxN/33lqhemiIMMLc5SMC1x50m9/uM40/Wlhpe/FmpJT+6u10FERk5Kmt0LSlFHyR98b9r+nrftWSmG2fWfUHs8kokKPvdKcZvXbAFXMAqI6n337JDNph05uov3vmp70dPlpG7QQeJjrRRC0Gdrvu9W/ZvITYaj+94VWwOIxSZ+kcce+9E+02n77L717KoJSudJYpFdMunOaN3rOYCowg0PFTixUv9YjmC+eSYXivyubzf3SI/od9uJCUUfZ6E+c9FmwToRfzvd916W+s+9va6aob/6gRf1rBmZ2CcIPU5u6r3nXFBMvRffr+l+lEvmAzjLY7rFF31n/94tNpllevdA+/YtPr7Cj4cmwQvEmYxot0LScXLm5Dc9vaDUFVYsI9qELCk0z6EAKbP88/UDGt6RA05JS/dc+WP3QhB73BTUjxFL45nun4uFvzMfXLp7cbn1riHkSp2DKFpgDSdOgkXycURmxBb+H/xWrTKPikfDGHaiF56P9x9rknWqxH5sZaB5Y8bP9zeq7fj3O36eo0A8Z45+3LuiqbusMfWbOdlmmROgOm18gFSRtXeg9TD9uxh/JF32r4JLvbum4Tg7o62h+JcvslVVtMTJ7ZEcy/SamoX5opaYiP4A/fGE2YqbP2vqjFagP/2Q79jbab+ErevQvj9aZwZ4anCvmvI41mFweMldl/JkcZ1C8yZjGFEAicvc8US+Fr92nr+DMnhzxy6EBo03GZx5TagRT/Vcr5u/PNMDp0veaCdS4XTg1gotFpDRcvzzUOcM1fbLH7sgwKgbTqsLt37NWYdMvtGnwvqBkCk2z+ca6LHUUvY8KzbodMTt5zQDwBdrUA0IBNEjl7lcP1uCKW3bC6x0xzena1DwsKUvLH42p5p0Kn2k+9w6Zeyn7e8tLP87aqlQvcb7xT7tx0pXrsFcqAT6aVzpo0Xid5pUdbGh3qHanT8KzH3LastkF+OBrK8UP/zw7Rew7b9iCRskkbUlIyr7r9WtwJlWKa15f1DrmsFR8SCco3mRMYwpmKTe0X9o05ck+fW2lvMCOhB0ovvWQL04HhdlRt0CtCNe/n24whWBvBe5Q0LD98E1p76HB5YXF8va2RwKdvGVyZdjbsn20Osuapr89jhlCha1NrUC5n4um67S1dr/2Zd/xcC1iorTaaN7XfbDiJ+eKhzqYe9XuGL515y6c8vn1uOb2atz13zrz0Rfff/0SmC+uQ6JL5ULzTgtivYcalmbfup2xbktnE2d95uSfTpqyozGJn967F6d/Yb2ZfMgM5OuSdn1VMCqVLP2naEWkSCqa/il+64V/vDuCcuwr75oi+a2VXnuexmP1tih+/ve9Zt6B9Tuj2LrHzlyoKdTR5m87pdyER4afbh4PQsYOWi49saLZTN2pZY4W1h/WSVVkfbAiY0RUljpwTSfaML5IDeGTt+wwM39pWZUpAe8JnVtbf8wZ1s0OJJwpZSHT/Kpocs00nvraUYbTrn265lvaorhvO6ncdIMoGuq2fXF86HtbjYDrXo1LV6fPgPk+u0S9Tvy5Xypd51yzEadesQ63/LPWTL+qVvY5R5aY1gVT+xPf9b32IadMvDL3yLtRutB5BXQaV33VTqJltl/a0Aqd7FXT4MdXnV7QJtes3h41bxwcfdkafOdPe1HfbOOs8VwwNWzm4te0KvrKnM6ylx55fX3Op3132vF0/N9JUiz4mz8xo/2e636N6w/+ug9Prm3Bdf9XbSsggsb50LkFCIVs6xQZfijeZMyihZc2mf/07/tMAaJliFrfBy6y/d1DRkpWfW/ajhB2TaH/5Mom02w7kgWWVhcmlIZsJWKE0ORNLQ+amckUzc4NYnnXiIh4mpExHCm19F171dSD5uabj5/4adfm2f+ubMGJn1pr5zqX++1oBUtfYSsSdZN7o/OJ33TfPpz2hQ049KOrcenN201zu//1rahUQM4+shQ/vmyGZzXKH/lfUhAchn59W8mSaLWjhrgO6Prpx6abZ1bzT+dRP/lymwaN7xOvtuCOR2rx3u9vxeEfW42zvrwR9z/XaMZfaOT0fkTjwCfOrcL91y/ARH0ezDPoinCnzIxnPhqG391gotFxqEeMUEtEZ0tl5qvvnOrNMWAv1N/Uh767FU+sam634vUd9XefWYGEDp7M9AMxTqF4kzGNWlc6y5gWkPoe9JtPKEOeFCamXBsCWphps+FHz64yM5fpdlgsks/eugu1+hUmOTZihZYEo/Nem1J/hNDsKxLhqChWkbD7dE70zTr6225mDA3OTD4jqBX+h6vnmq9rKX6e72tM4d1igR8sQnecCPQpIuZHy/Kgj6/G6V/agBv+tMe0xthR0dai1mt1INb1752K739oOgIihpqnVgSttZo+QG6wqHDrs+L7pF5qEMvmFODyN0y0fd+yva8hadJw+pfW410ijl++vRqPvNJkmsZN/7ucps+1vraoA9we/MY8XHbBRIQka3zrWD2KBANoadQvh9k9Gq52AehSncnQ/j47UmN6o1RY363vn8t1Nr9d85Eb9UjzSvfPnBg2b2Vol4Cff2R4oXiTMYv2vz7wVANiYiVoIacfDrnyosnGmhqOAkW9mCDWp35SVJsJVbBrGhP4oQ7akcJzJAutShHvfha/w4amcVKZtVZ90dxd631ZLANIjpqlDkxTy9QGDJRHHPMhFJ10Rgdfafh6vzX/VVT2iAhu3Rs33wE31wlqReq85oq2nOj3sN/+mnI8/K35ePvJFQiZYx3CreEUiQWv5/p+Dwa9Kl/Uu0gsX13XUPzB3joQUj+Z+dk3TZT9Nm6aVr1Kg9M4a8uCrqvga0ViwdQIfvqJGfjd52ZhsawH9D6I+M+oDLdXNPSthAb9AIp65aEtJuZ3IOsDS4pO5OPiyrdNNl83s/Hp7IEOYtRvBoREuUfyNzDeoHiTMYsWToun52HJzHxTQH349RNQprOmDWOBkhKr5x2nV5jmVC2o1Osls/PlgBRznqBlGg2lIgvirYnV+a81XE27WlkNIpDDPbJYuzimVoSMaCpqdZ6wtEhUwragaHiz5fifvzwH33j3FCNceq7pK5ZrVRz1/qiWaQVL9+u90f5ZbXLXucMfv2E+rhOLe1pZyJwod9KkyUfTWCLirc3U/sdOVEwHmufqZb642RMjNh4Slvlame+RbOtYir9JZeTYAwrM5zwVja86vV4nPDntoGLc/tlZuP+b83HeESKU5ix7H/RVswvEOtZztRKglnyZaZmx5+hCWxw0P3Rq1mMXFdr34tPS2xP+OWVSYbr/2rle83vnXNAKzjnHlcpvg03mmcSZPdv7qpj+k3zWr4pt5FfFyBjAFnhSuBeIsGkBKeWOzp5lC8G+C6r+YMKQgvBzv9hhZj974Jq5mDctz3zcYTjDScf4KyJy3CfXmtezVKBu+8xMHLVQCuEMhNcdft6u2RPHcZevNYIye1IYXxGLTKdJHXZEnWJtLuolvVUTw+addxVYH42PXcr9LgyiuSGOfz3fZPph1+yIoUGu06+HzZBrtcJxqojf0rkFZpawlA54E6+0EtDTPfP915n62pHLBoOK9j9faMLtD9di/a4o/ipC7X9tq1M6tD9baqA7d8dNE7++DqgD0YrKJNIJ+S95oBUmpWucdTzA8o2t+O3DdZLWIrz+yNL23NLw//1SE/6zvAmnH1KC00T89fcxkGdV4ykajY3VMZx77UYz14Gilab5UyN44KvzTEUkE8//aGY4vio213xVbL3JO+P0zvnrZtXuo3iTMY0tDLUAsYWiMpwFivFf/NM+WJ1dSifF8lpjhzWcrpjCU5b6xpQGp4OHNbRMhtk9LmrEatNKQ4mk33zfYpijYO+hh/qdvtklve33W26ClXcREHNRB6q5Zr/xx3rY33zrFBePgea5+mFiKdfJU2ObP2VHd/744ZkB74L/bCk9hWuukWN2qTvsHAA+/n59Z9sVD71vkgwqHRDL+7Qr1mGrVC7UkteK5A3vnYo3n1RO8R4k/RVvr95GyNik0wPvueHE+CeFmL6qpWOmtHDNRDhdUf9VMPOlVC4Q113f40ig5Xe5WKOl4sy85hmIgp+fxum/tO2u2P0aDckf2daeZT0r3bXv98/txp+e8MNNdwNFrzH3S9Zt/Hr2xw9Dz+uIc8/nK+a4LDUMc12XU+1xu19HLPTlX0/o7V67qc2MhlfhVnTw3HEHF7fPXkgyB8WbkCHiF34jLaAakgY3gkHuh0m3qICNRxYjkqPkao751vsv/mU/QuJzykFFmDbCry2OVyjehBBCBoRqdzISwD+ea2z/Pr4Kun4r3nRJsCKXcfzuDo/OW4QQQkg6KtI6Uc6O7VEzMZGqhkq1Toe6ZKFOgORZ5mRoaBaK2y8nvX20vAkhhAwIkW98/697zZqir5ydc1QpQuZLaOxCGQko3oQQQvqNynV9NIU/PVmvKm326RfuPnb20L4ZQAYGxZsQQki/ME3mos2rN7d5nzC12/p1t9lpc8yTzEPxJoQQ0m90UqK7Hq01c72rFa6vh73h2FJZGeSsNWRQULwJIYT0G50n/f7nm8y0s9pEXpjn4A3HlRkhZ5P5yEHxJoQQ0ifaZK4C/b/VLWaaWt3Wt8ROP7gYEyfYj5SQkYPiTQghpE/UqnbCAfzzuUbzSVHZY6YFftOJ5WaeXr4eNrJQvAkhhPSJinMqkcLjrzabgWlqaJcWBnHU4kJznE3mIwvFmxBCSJ9oH/ez61qxqzZh+7fFvfu0CvNFOTLyMNcJIYT0ilrdwaCDvz/dIOt2X1s8hbedWm6+q05GHoo3IYSQPnHyHDz5agtCIuLK9AlhTKuMeE3obDIfaSjehBBC+iQRTWHbvrgR65SY35eeW4mQaUAn2YDiTQghpFdSYlk/u7oVbTERa1HvgkgA7zpjghEQWt3ZgeJNCCGkd8TSvv+5BtFt10yL+sbjy9r7vkl2oHiTPvHf30yl3N5d2q+539eIS38/VNfVdXdeuvPPUzTc7s4ZrPP97k88enNJb+nHs790Dd/sk1+qG3KQEqfTU5pt2e/777ueSPdvoK5rOnoLx29F7erHfi7Nj4HEzT+3J/xj6r/GW3HFMDT55Tmlv36p6xqHIbm08Prz3PaFH0c/nmoVu0Hxu+uz4h3XpX9dT5hzvfPb4yH/zz+6FFMqwrjoxDJ86a2T4Sb3/253+jXdul7CJQPDmTV7jt5RuTf2xs6fPx8bN2zwDg+Ozbcu89bIWEB/b1H5oa7aFUPQK/y6oyTPwezKsJQf9getz9NKuUZ+s70yoSiI6WUhuyHnNsdTWL8nbt4j7Q6Nz8SSIKaW2h63TfviaBrGeZUXTgwjL2QT+uqu6KAG0wbk8oK8ICoLA5IvAWOx2JJ1/wIvHVuo2gJXLZzNNXFs2RHFhp0x7KpLoFXSWSD+TakIYe7kCGZNyzN5HpGC2jFZ0LP/MUnI6uqYt9U/1KuQ+F2cH0BVQRCRsIZjM6SncOJy/FWJby/JRFjSt3hqHpy0vN0o97FZ0tdbdi+RNPsDprriC5IbcBBLpCTvEtgpz9/O2gTqmhPmVSdNh+bdtEkRzKyKoKxA7o2mRyPb5d6ob7sbEtjdmDS3bqho9KaWBlFVLOoq4azbE0NbvOfUauVjqdzfiE5j1gU/rYqmt6kthU3i38btUWySe7xP4pyQ+10s92xGZQjzJK9nidPfmfHOu767e6hHqiXde5ok3emY6+S/Rj9hn/ElUzoGrCXFz5U75Pna38t2QhL4YrnG/rrGHrPft8JbGzxz583D+vXrJRvln94fcbq0TrPX2zdbxFsfBOPkwvnz51G8SSe0xrxmbxwHf2Q1ykSMOoqNNGTnaQcX466rZkupo2WDC/3o0IIPrjKzMHV7jaAf7j/1oCLcfdUcNUXMD/+p1a046+oNyBOh6O66pBRKl51XhWvePhkQIXvr1zbh4eVNPYbRX/wy57/fXoAF0yKSbuAASXNjaxIDrhrYpJhJLE47uAifefMkLJLCUwstzZuuhabu84lJAfePp+rxrT/swfqdUYRFPPWTiwHZr1fpqVpQJiSDY+JmTwrjM2+YhAtOKkOeHPfO6hSG/rq3yz089LK1cCQS/c4rOVHD03tRJZWlc44qwSfOrTIC2F04egv3tCWx4N2vIj/S/f3TPJg6IYyXfnEA3GbNWTlL0va2b23GI680dVtZ0hDUrbhpMSql4pY+Faefn2rVtYp3dz9Sh+/9ZQ92iHhrpSZstdKeKy4hz2dUKogl+UFceFwpLrtwImZKfBxNqOCnR8Xz+j/vwfV/3NNrpbW/6P269h2T5dmdCCffwcmfWYeVW9q6zSONQV1zEpvvWIYpIsBGcD38Z0X/Nsmfn0taf/nPWiPYmudBOVmF1SDHNR36nOj5RywokDhMwaHzCxAw3uz/LCZk8xv/V40f37tPnntz0n6o9zHJx023L0WpF7lGOXfuO1ZK5UqeA7OnM3rWRKk8vHTzAQhJpaVLsGOCYRVvySDzG9Nlu9N8tOvD8EiS8YAWBqVipagYlUph0tWViCsUIe1KsRSQeqy7a9SVixWycXccCWNN2V+zFpQmrG7OV6f+5avp5qGWaG9h9NepHzrhRHpBWSzbg/Jb8qlEnBZ9Dy1vxuu+tAGf+vl2uCKCfjrT8QvQvWLtHHPZGnzy5zvNZBhFkn+RkFiHclzLbBVH9VPFKyJ5oJbVvsYUrvrtLhz1iTVYJxav/b13FwZMnAaUHjlfK2w6HaZad3f9tx7HXbEOH/rRNkQlQhqn9IqHovlXItd06584jYNawF11Qe+jpqfba9TJdd1knc0bWT63oQ1Hf3INvnZntVS4RJwLHFPpMJUeOUedyTcR9BINX/y656kGnCzp+fhPt4mg2vuVnp58Obe3Z3EgTuOv98ykQYIoypN4dHOecXKuuq730a+oqLX92IpmHCyV45vuq0FUxFmfVW2V0EvsfTHBmPTnSz7oILOVW6J48zc34Y1f34QGM6Wp9bMr2vKk+ddt3MTZe+igsVZHn9vrtRWlpEiu07h3d406yff01hYyeDpKQEJ6Q3/kuujhh2fr9QNH/asVwYqbZm/PD1noWm8+ph/rKU6DYRi9akfjpwXoX55uwHV37NI9nQpMXVercfWOGE79wno0tKRMATxQWqIuLpBC+ak1LcbP7grlQd2ntMiol1q5+vfLTXjXd7bAb/XtFJauikvb05nejg0QP+/+I0L2zhu2oFXyoMPvXjLRS5NGW+/NA8814qRPrUG9VFDsfuuL+TtskfWWPr35K8fSs9RHhTslUb/7v3V49/e39b9FIO0eqh8vb2rFm762CTVSydFg9n9Wen9S9PSwBP6SVJi0ImEibA50rPZEH4dJP6F4k6yjBcfWndFey9qxgFp9P/rbXmyr1y8yeTsNDlqSLj7xs+3mVZz9C9L+o82jl9+yQ6wq9SNTGWotWP261Dfv3i1qns0b50D19jLJO037YNEUaDP7x2/aPmo/S+1XVLSp/Uu37TLZLna4d3RgqIBrl8znfrkDgZD4kSbu/UUrDg+/0mQzj4o84lC8SdbRguRfLzWZd0nHOkX5AfxTLHBogSlogew6Lm65fx9WbYua/knNj8Giur+zJo6v3VFt/B1KRaAvtB/+94/Wme87ZwMjZpJV1/x2pxmXMCQkz3VsxyMvNxkrXEeojzb0uQhEArjmjl1m8N1Q76z695Ck97FXmk3aB4pe8vjKFqSGUGkig4fiTUYF/3qhEcFxUAaoxXrPU/VmhLMvrIG8IO56tN70zw5FuH203/NvUkFIhnoYXNgL6WLfl/Dr0WYxe39y3z451+4bSTTMvSLat/6r1uTrUNG8L5TK1a3/rDGfvsxCknpFre7t1TG8uKHN2zN05InDdXfutukdRIK37YthZ2PXliQyElC8yahg+eYoGmKDMye0+U6dDqprd1KW98fqTL/O+mMH/AwEtVr8d4r7Qk9TC7uuxRssJPvWbGxFdV3CHOsJTYtGSwtwjV9vadND+prZy6uatXTuN8ZP8TyeSKFN7kVURwR7x3pC80srXjoQrz/5PVyY/JD7tWp9qxno1lvIeq4+D6Zrtg/0DQNtlt65275Sp9foBznSny19TvrChJl2jbkuKMsB3I/uuO2hWsS7G47fBQ3G3E6z7Pl8fZbW74qKn9pXMLD7p/7Gk8DW6rHf5TUa6cdjSEjmaWhJmndqB1Z8CFLmzJ8SwaHzCnDYXOsOnZuPebKvLz3V12oOn59+nV3qSPb+lkXaz/qOU8rxhTdNxNtOKjOjaXspKw1qre5uEmtF1tVp02Wv4i8eqp8HS7o+8rpKHL2w0IbRa0Au7ntWX97pf6mqlqe+3v7vGxbiPzcswM2XzUBFiShOL6gY7aiJIykrvcVmuNG46gQkD0ve5XldEN2hAqPxmlwRwpxJEbPdF61ScXl1R9Q8PzopyWHz8js9IwfPKehXrh44K988i/61h8kzOsmfz2AwSB7/Z3mTLHoPXZ+lMw8rxgfPqsDUCSGTV72h74Nv3xUfsACrvwVSaVuxKQpHO+DJiELxJqOCAhHSLTtiYqEMsBCIp/DFi6fgri/PwV1Xz213n3/HZGM59oSWNVqY33ndfDnfv1aXczBjok400z+04Dv1sBJ8+OwqXPe+qbjnmrmmUtAbajk16AvJgv4AV2xu6z08KSQnl4fw6ytn48qLJuGXn5tlRaCXQtl1HbwkFv1AG3/Vyxk6AcyEMM4+ohS3fGJG75aenK/vTSdF8HpP9fCiIqyT0ry0SfKul4BVq88+shT//c4C/Oub83DtJVPMPetJxI3Yy6F99UnzjLxVKmZ/kHva8WzNwe+vmm3eve8tverHzz49U57Ljmv/dO1cvOHEMntwgOglCXlYdtcnek2vcvHJ5fjpZTPxhbdNxh++NMe0wvSOg+WbWwdU0fPRLppn9O2G3ut4JANQvMmoQN9l1tHLak0NBGNViICbIcJRURF1YtmmehFuRY9qE7S9xr/W+uP2ZbJ3Qb1JiSDorFNzpkWwdGZ+r82jajm1STjmFFnfZd6V7Z3PvnEiSlQwJIp54t55WrmNfw+of9trEgPXCT1f4qTNvNovP3tWHpJS+PcoGHq+uiwMWtLJerbuiZmm7p7Q5+Nj51Qiqc+DxPGdIsZzJ4d7rCTq+ZrWmDxT5gxNlw5n954tR+5bQrt3+kFSP+LR/mzZ59L412Nm9o4OztNWm54u190q1JddMNH+JiR/JhYHMaMq3Otz4DiuGWk/mEF66u2KLW2SYb0EQDICxZuMCrRA0hq8Gcjl7esvtsDtcINhOPww1pyU0VPFcu2tGVy919m2fMwUmb2EqSKtrQQ6uYVvMc6bkter4OtZ2m/dEcrAkFzQP4hIvHSEfG+Fvx7q7Xim0C6Lptbenxed7Wu2iJffT+2GA1gyo/fKlY/6O+TnQrNxqH54qGWc6K1iKV5r13VEZ0GU0zSsoLhZE8NysOfr9Ih2FfTic49oOCr8W/fFewuCZACKNxkVaJn0qg7kahb1y3F0LvC+GKjY6axgWjpaAdAZsPoRhrccLBKS/defUiILBbc25+s0sX3RaS50OV1nLstGZWM46M9d71pBsM9O7/R9RvdoZVKnmn15k1jfOZqnuQrFm4wa6luSWFvd94dMRjVSCja3Jfu0sLRZekCk54ms92fE8VhnoDng35M+bs2oZjB3Xfv4M4Xmqfb/P7e2RWpJ3k4yIlC8yahBXztaJTV4HfGca2jxaIpIEYZNu+M9NsuqpaJ9tPl9vN5ESK6gv9tXNreZLgkycjC3yahBv/700vpWO11jjqA9rsH8AEKFQQTEPfZyE9Zut68ZdYdaKnlhmNHiOWwA7offF0/GH/ocb9odg6MWPh+DEYPiTUYNpgavI1dzSNX0S02f+8k2HPeJNTj246vxvu9t7bVZVo/p5zBnluv7t97OMUAuldna5aADtPTb6Pq52q6uNeYikfJOJn2i914/LlS/J253kBGB4k1GDWqtbtkbR6NOYJIjaqD6W9ucMu/f7qlPmibxHvu7JVFqoV5ySgVC4bGh3O23KVfulwj3B147Ab/5zEzc9tmZ+G037v+unIXTDy4e+JwD45h4Anh8RXNuj1fJMez32NthzpPsou+xvryxLWcKAV+oNbp9RlnOLSsM4pIzJ5h3cMcOA3+9L1vo63ZLpufhtAOLcfpB3bszRbhnTAhJssbSPcos+jN4eHmTmQKWuZZ5NI9peZNRg1qlWl4+ubq5X+/h5gJ+X7C+963v2z7/w0WoyLOJ69FCJxlF810nyunN6Tm8P/1Hu7y00h0Z4CRLZPBQvElWSR/opIWlTqbx7LpW84WtsYAVAeCb75qCf9y4wMzENhahkTq+2H+Aoovq+jibzUcQijfJKjqBRrqVrWKnc2XnIvsXaHafuqt/V423Xr0RUTM9pndwjKDJZpk9vtAKaWGefknO37brFO+Rg+JNsoZqmI7WPnhO/n56litNlirM2iSuE2GYryp2wabDMQPZdBaqs68RAZfKyVgq4zSJphDPjVtGhgUHZxxSLMuOJzlXfrNjBYo3yR7yW9eZxk47uDhnxUy/XPbFt03CTR+fjneeVtHHBDMuVm1rw/qdMepcljAtIWZpZadXZ2okpDv0G/bHH1AkzzGf5GxB8SZZRS3SU0W89QtRuYh+NGTp7AIzQvnrF0/BO0+f0MsnJx0U5gXx6MtNcEMdTY65jhHCXElMOIAf/HUvzvvaRpxzbfdOW0eu/+NufqO6F/RuT6oIIRK2YzrIyEPxJllFxW/K5IiZOCNXywD9cEdQCnptPj94Xr4Rs56aEHVAnlrfljGi3kKuaLdGc2dNHK9ujfbi2rBDv5JFekQf73jcNZ9X7e2TrCRzULxJVlGJK444qCwN5baUeZE3r8r0UQtpjrK0yzYqPj05e4K3JD0Skwr3cUuLTKWVjDwUb5JdpJDUrw0fubDAWOE5ywAK+1xOZrdI2sdcmkif6D0/9eCSTm+LkJGD4k2yjnZ3n314yRhqRB5nuCy9xyPaXXTUgnwU5gfYUJEFKN4k62jN/fRDixFiFT5noeU9/tCpZvOLQ5g2IdzR3UBGDIo3yTpaCEyQAqC0IDg+CoFBJDKh/YredaqTo2uQkGussMHRofr9qQDoszKe6fvJ0bcYOmdSf56VQWdr3MWymXndznFAMgvFm4wOpPSYMyk8Liy4rgVwWAe59ZJu1ew9DUlziimYZbuuufdp6DSMvNBQ38Lt+2ao/xo/Pw12u4/Xh+SYGeSUfo5sxvQ7nH0EqaP1e/O6O/wBVb6o5er4Kk13r186k3TpvAnJmFSm5DRNrya11jwrPV+nRwb7rCTknh2+sFDuXY5mag5D8SajAldq8IfNLzDvSI910oVNVyeUBKWQ7Tnd+qGMZ9e2dJwhhfLLm9t6uUJOEY8rS4Pi/2CKZNUBfVfdLvuyqjQ94fyOokR1XKe97RHxtzUqf9IKfBWaHTUJPdQjqlv5kY5wtJulr54WfZ42Vsc7fcRtT32iNy0z6Ic2eo1MFnAkj/LDAXNfukN3a7ZX743Jmljg8jcm927Hvj7SKw9LZYl+Rc3bHgAal0PldxsY700iWYDiTUYFWsgeu7Qot0ec9xNTjnrJTEp6F0zLs0LZQ9p198//sQ/7oik4IipN4n73nzoj6j2hRfcB08Xf3grtntC4SKGvk5TUNSXRJpZce4S7Iv6HxNwL5ksFxDulQKw4FdkerjD7m9qS2LwtCjW29R3/TSKoa7ZH7QndoEnVqXTz0z5Yo+tFEm5PSbSWp4Of3LsXIalcqMWtwv3fV5t7bUrW+JUUjL6iMSRxLi/qOV8VrTR95XfVcCJSsZH7sGNPFLVNCfM89IQrwrtkZmRQYqDP4BJ5fieI+A/mUSODh+JNRgVqMRwlNfjCvLH/SHbV3OOXFJk+497mhlaBPPcL6/HOG7fgdZ9dh3AfJqcrqq2v8QwUFbgf3bMbNz2wD1f8cgded9UG7wtv3YenIj9tQgghEWCNvp6lt3DJjLxe+6dV6F9/7Ub89pFa/OmpBnzkxq0o6OXeq7/lRSLUaaIaFHFaNE1Ep4fLND81m/75YhPe950tuO6u3Tjv6g29vpesgq/jC2ZNjkjaeknACKN5G5C4HTKvQCoePcdLK7/PrW/FmfKsvOPbW3DOtZvMLGg93T9F82nB9Hx7UwZBWO7JgbPzTRzJMKG3Yr/b0XlHz78WQkYQ/eGXlwYxe6IUxmO8EDBi46VRV49dUogStSB7S7cc29uQxGMrW1Bd13szqB7SvuFTDi02Ta0DQYXtJ/fuw/V/2IO7H69Hax8TymjLwWsOKjJN4KbyIf9TcgPPO6r3ioOe2xZL4erbq/HZX+zE2p3a1Nsz2nS/dGaehGO3NShN2akHFfcqxj4PL2/GL/5ZI3moVmjPmafxCoo7ZF7+qOsb19aCNx5X1tutN/HX4zp//pOrWszc++a+9EJlcRB5UjEaNJJRxywq7LN7hQwvFG8yepBCRmvwo63QHG46V04cRCIBHLGgwFixfdGfio1m31yxHItMgdyPC9LQgl4Hn4XFqtV+375uhZ77rlMnyJp3piwCcgMvPKFcb2cfSNolHHV9nRsXZXidVAhSIvhWjOQasfbPOKIEzW19PzB6ie2H7z0gPW9GVQiHztF+XG/nKEHjc6pUyCaWhXrNL1+sddFXzmjF5w1SIQiarpFBIhU3rey0xaneIwnFm4waHCkEVMTi2hE6hlHLrgMXybYUPnZepWmu7anfu9/I9VogX/mWSUgZq3mI/vWCpuKQufmYNyuvQxLNioPysiAWTIsMtiW2Eypas6oiOP+o0v1Ea97ECE5cWuhtDR3Nu7e/psLMVd+XxTrSmPgkgYtOLJPfyNCfFU1dWWEAn7twoqz1baH3hEZj1rS8TD5qpBso3mTUoAXnASIG8d7fgspptHg0r/t4BaUWmCoURy0qxCWnlJsTBlso2wFa9hOrpx9uJ73JpADpQLNrL5kCd7+mdYmFWHI///iMQb3alY6mSeeCv+ptk/bzSNOmKf7N52ablgJN6lAETbszqkpCeO+ZE+RhHIaKVAbQOF32homYPzXS+4j+PlB/1FK+7IKJ8vx5OweJ5vv00hCm6mQt3j6SeSjeZNSgmrZwcsQMTBrLqKCpLPi6qgWpK5bU5946GYfPK/D2D1Q47ICxRdPzcP0HpsEV8cyU+Gg4USn4b/zgNCyblS/3rXMlQdd1c6bcyy++fbJ5f1u3Bxof9TEpFbmPnV2J1x4uVre7f2VEt4okP+++chYKIwETlwGn25zuSmUHuPOq2e2DJjNZ8RkKEYnWz6RipBUW/c0MBn274z2nVeA9Z1RIHu6frwMlFHZw0tJCc5/JyEDxJv1Cf5TtTre7OFuAy0oXervGuC4X6SxrB83OMwXpfuf6Tv50F1Y6fYdrXV+0n+uvpzv5owVfOrpPf1TdXuOtGCtRVnVEuKJ5oPlXJqXybz47S4RKB3upCHnX9IL1R1stgNcsK8LtYoVWFYqI9WB16x7dbZb9cfJH7Vtd15HM2jqio8tvv2I23nx8qRms1BOOHHv36RW4QSoTKqx6al/pUfQcHVGtluWl51XiSqnUhMyR7sPSdB40pwB3ifAundUx21dfYelxU3GSf8cuLsJ/v7MA86oiZpBfX2JmjsofXe7n5E9f1yt6Tqfr0p38scLcfZoXTsvDfdfMFQtc02vPMaf3gh7XfFVL+7LzJuIrl0xB0FzaTRgmbj3ET/6YuOuG2ZYV8UKnOPbvsTmvq5M//jEydCjepH/Ij1ItRnXavLifk19kd1aAuUaPdT3fc+ktf1oIqJ6duLTYrHd3vjodSNVdWOloIWHO6+Z6dXrM9D338iK0HjHn9eSPnKDLdB/USxVO/1jX8zVMHaClxaWe6+Nbi0Vy7KbLZuIPX5iNYxYVmAFhesR3+kdP9U43Aqf9zneI6P9KnAq3yUf/hE44pim9t/vR1em5IbmJOuHLSUuL8OOPTsejNy7EyUsKRQk8b7vBFOi6FAvvLSeU46nvLsA7Ti43fax6RAXT/rctBPafpUCsuLOkAvPA1+fic2+aZL46p2f6fqbjp1WPLJ4awV++Mhc3SmVhVpWdb9tkg3EamA3L7pRKlOTFUQsLTd7dIfk9oVDfGe9buJWACGBPvwXNMz1mA+4BOWTOTbuuq7N+dI5Le75KGjSND3xrHr7z/qmYN9m+MmfTJyfoon1pV7RF4XVHlOA/35yPK948EWHfry7p1S3HsSLfNU7GyQmaRivt6resi2ofPr/QiHdv+aKV1C5JIoPEmTV7jj7R5gbrv/nz52Pjhg3e4cGx+dZl3hoZK+jzkejjhxeQH66+i+oXBnpNUn7p9ufdPfousLWqvEJGrtXzk338wDWcnqfn8KzEPuKrYQdNfM2W2dcVfTOpF303ZZfOj+Z/Vykl6ybcXtB86qljQPNA80+tqYCImPpVuy+GV7dGsaM2YZo7tXDUvtmls/IxeVLY+JWMa7OvJ2Q9hK/5mug9avthvJJ4aPoC8RSSCYmX50dP4aRj7mkaqfwA2hqSWLW1zUzKotO8SpLMpChzJ0Vw8NwCFJeHENQBWXJAK0K9pSmd9LxzJJx4WwqrN7fhpU2tZnIW2WsqDzoS/7B5BSitlLyTMHR2v4GEo8T7cVpI/evhudKw9N729WwZP3qIU6f0RgJmqtJt1XGs3hZFbXPCvFqmrTwzJZ1LZuajpKIjX30ve/Jbh52keouboFa7PIrtaHz6KiM6fnN9eJ6jzH7fCm9t8MydNw/r1603eWTyyVvaVX2ivH0Ub9IXfiGhy74wD5swkGt8Bnq+XKHP8H4MNL7++ekMLB6Do2uY6fjh6189TWJo1n30SrPH7NSt/dOQzlDSY+JgV3sNoy/S4+CKP+1RV2RDV3WvnmbWBxmWDUevFb9kYfLO80rFw/idFo7S37A656NcozUx8dzMSKeep6F+6vk9+d2fe9KfeHXOV/2rqetAd5k93s6+/OxPvNJJT+f+12pYmtfyW9Vapp5n9o1NRlK80ytOhHSLeYC8ZV/Ox1/verw3N9Dz5X+36DF/2Zfzz+tK1/My4XrDP8eMJZB/+kPVss93um2OmPO6T0M6vn+DcXY8g3VDoZOfsm3SImW9cbLup8kPb7DYMOxSWwzU75CEoa67cAYSVsf5DlriwKduK8C9z4dR0yr71GPZr/JklhJeb377fvXm+kP6+aaFRPaZvPWcn97++pnuX3+cf03H0g9Dlt7qlloHNz8YwU3/yjN1iAHWD0g3mMeNEEJI//G155ktebj0d8U4//ul+Ma9hVi5M4hYUo57oqUiNS6EykujSa/ZdFAfBZ5cF8In7ijGed8vx9fvLcLmGu0ks2eQoUHxJoSQAaLaHBazdkJZEIFwCLua8nDzYyV4/Y+qcOFPKvGXF/LRIOLly5Qv4gNtkh7tmPSI01TpYLWk42JXQwA/faQIZ36vCm+5ZQL+vrIIjYkQgnlhTKkQydEmdM9SJ4OH4k0IIYNAB+7NnihCHgrBDYWNiAdCQazel4dP/7kSJ39vKi7/QwWe2xIRcRNlM33itl84J4XcxNtE3Cxt9CUTggG0xV3c90oBLv7lZJz+wym48eEy7G2JIByRvAmGpaaTJ+thTK2wryjkXNpHIRRvQggZBPrq04LJOqQ7Aqh4h/KMc4OyHQyhPh7B31aW4p23T8V5t8zAr7fFsL5N319Qy1N9sP3iKmNGDM3aKMQTatuXL0uJvOME4EaTaNpQgx33rce9v6rGx/48FU9vK0CbGzaVGc2XgHGaN1KxkcrN3Kpe3i8kA4LiTQghA0bUTCzpJVPi7QIFESeIpemIhenIPickTpYxJ4zV9SH8cncjLttYh89ursOTbUk0iMVqXok0mq0rHWI+GrDWtVYpJG7y302lkGyOonVjNeqeXIX1v12OrX9Zh9oVe+E2tBjBNukWK9s6qcR4zpH8yS8IYv7EuPGbzeZDh+JNCCEDxB9VPbdSxVtEW8RJBcpRATMilu5EvETQdaKSloSLZxtiuDfp4p9FRXikpAgr8vJQJ0KusmaEWwXcc7oxUmLuN4X7S0NSBLuhGc2rtqLmkZdRfd+zqP3fajRsqka8JWpip5Z4YSDVkV6xsn0HfxkMYVJ5EBUFY/jDBSOMEe/2h2OknhJCCMlhVOC0vJxeEUeRWJROSFwnwe7sgvkOHC1ttaNcxM5N2ulia9wAVuZF8K/iYtxXVoIniwuxUyoDOpmOnCXhqMmr4dlwM0m7LSyCHdtTj4Zn16L6709j9/3PofbFjWjd22imVxWZNufa5Oi6fe0uYLoOOqdbWyWsNR7GrIqEaDmbzQfCfrc9bQctb0IIGSR5QReLp8TtoCyxLtXq1mW6s5an7E8reFX8HRFyR8xx7T/WY7GUg+2BIJ4oKMD9JSV4pLQY9dqxrnSZACYTaAjaoFAvor33P8vRsF6s69YEkirPKs6eSOs5pmoh8fUrFSro2vpgnOZBu5O0i0uFIjh8plrqenHm0zIeoHgTQsgA8ftsdRKUk+Y0mtegHLGYVai1/9tam9apiKWQb5qXfZriiU4aZsRRxVwHgsl6mxzbLeut2tZuz/CWmSeVFOvaTKFqRdumVdsBOsuuFW45LnujARVuTa/kgUm/Wt2eBR4MIi8/hKOnNRrBH8m0jGUo3oQQMkhUv143rxYF+dp0bgXMVcEW0fKdCpioO5AUK1RQLWxoi5ul+mCXvhgqIuRBEXFdTVfLEUI/epJOu9zqbjmmh3U6WF36aWgJ5Em6dZS5rayo021Nf0AqNlPLkjhgYoueTIYJijchhAwCFS7VrvnlLZhZnrSvQ4kLessOJyIWKEAqJYKmgif/6toSsm5F0v/ri7i/1AP+qndShpHQJBwdVe5tdYRv6IiEbTK356uINASLTTp9i9t/PUytbu06OGFmE0ojiS7+kaFA8SaEkCGgGnbq7BokjdUdarc4/dekzHYwH6lknhFmPb8pFjdfvlM5TBe0duEWVNvFPrcb6SdlFBeJaKKH8HSnPZBKaP+30W7Zk0J1qBKhUMAKuCfi/kC1VKgAZ8zaI+faJvb0NJLBQ/EmhJAhoBbo62btMp81dcwANU/A1PI0zm4n4yVythnahVgihba4bXv2LfCu6Hlt+v3XEcRNppCKxq0q74futC6p30T1BtFp9HfkTULQvDLnOUm3Oh2FP6M8jgMn1pvzVMDJ8EDxJoSQQaJWpMrRkooGHDG5wZugRUTLOF33XCSIRLxKzrRirUJW1xbrVcr0WLOatyOBqUCIKMfE6k7oLHA9YeOTjFnp0KvanAg2FcxA0FRcxNr2Ky9BTXseLpy7HRMitg2BVvfwQfEmhJAhohp74ZwtSIXy4eorYiJe1vrUpYpYQDRxWrvlGRKLemdjVMSsZzXTJubmkbS8RYnV6nZFwFWUu6JxtRUPB6mEvuIm204AtaFS7C6Y7HUX2EqLHagXRCgvgjfO2WxVngwrFG9CCBkiKmgnTN2NuRVR03zsT43aYX1HkEhORypZYIxcleytdS1m3bzz7QljOir0jY5Y7HbD/5M5pAaSamqVSobb3p/tY0Xb7tEm81RS42v3byiYida8YtO/rxa3qbCYCkwEx0zcg6kF3ijznuspZBBQvAkhZAj4xnNpIIoPzFmBVDhPhExnXPOaz71+bzdYJsI4Wa8wwri7KYombaYWepLltqCDtpFoOpdEaAUiXtdsZ4Lrgt9CoItktOOEsBvH8tKlCGka2ysqdqR5QX4Aly96uV1kqN3DC8WbEEKGA7G+z5i8GZOK9LUxETHt8/UtUd0WQYsn5osAWsGOJlLY2dhmBLGrsKlVq7OvRVNAkzdRSyYHexmrWlystkkWOiq8Iyzf4vZOQSIqFRM5rHtTIiErypeKoS1xFNE2TrsLIhEcWlmLA8v2mGup3MMPxZsQQoaKJ05loRg+Me85hPTrYp7F7b/37EQCiLuLjTiqU4N6S22LLG2TeXdN53qsVq13le4ux4YN46+DVDyBhH4drEeh1XOsU3Tc/JbCGagummbS6VdWdMR9vqT1g7NeRMq1EkPtHn4o3oQQMkTSxenNU1Zgbnmb+USm+a61t9R+8GRgCpLuVDlLbFtR7811zWiJJ9tF22+eVox1m0phr1jeejR9etXhxIbsIl7TaL4U5oeSHpqtXKQQbw36FyDoJvHg1NOQyiswlrY2lyMYNBWV10zcjmPLt1K0MwjFmxBChgFfW1OpIC6d9l9E8kTITBOytbztCOx8tLknyLkJI4LN0SQ21TRbcRaB7Gp5q4TWiSCafm851PXocKGVhradtXB1TnPZ9sOxoq0tAnZfvE3E20YFATeFx6e9RtLoTw0bMoP18gpC+PD0pzqsbip4RqB4E0LIMKJN3KeUr8OplZuNoOkUoXYQl7ogEs6hcob+kwJYRPnV3Y0IGXHuaDpvFzxZiYmr1kqAbpqrMoCEFxXxNgF7gatgpzfl60A1V79VatTbxfIJh6C5YIJtKlcX0K+H5eE9U5/FooI9elZHOsiwQ/EmhJBhwhergOvgY5MeRUWBnfPcvjrlNaGHy0SQj7LqKOxqbENtS8zIsm/pKr54ijGMXTr5iwp+zx3Sg8IX5kR9CxLNbUaX/RAcM4OaPa7LtgZJgxzUPSkngDuXvlfS432ERfv3paIytagNb6t4Fs4wx5Psj4i3f3MIIYQMF/Py9oqAPwY3oq+O+QPY7LvQbZE3yxlB04+dTLl4emuNqqW9sAs68nuPvu+tx4ddE9VDBy3rdyGZ0CFoHQGorvtO5zJPxiS+3rGtpXOxauKhpkXBWt5BhPNC+ObUP2NCsNU7iwwPmut6I+yaDy1vQggZRnwNdqV4Pb/kORxRvMM0l5vXxUTE1VJ1I1ORCC2Wk0Qw5YI1e5sRTdgvjfnWsNFqzy/t896uFm576Z1ejA8O64OEl0iidVO1EWm7x/+jTeY2DtEmqXh4c5kHUknce8DbkBeUbY2TtipEIjinfCUOK9xszlH8uJPMQPEmhJBhxgivKGC+k8Q3qv4PpfmuCLcVcPu5TBHEwgvlTGvNqkg+s7VOr9TL20XcF0/9fvaavAhSui77xDdz3pDwPI/trkMs6n9fvD0GntN5zB0kWiTCJkXAuqqleHrOGUawtUsgGAlhUWENPlvxV/9bJRTuEYDiTQghmcATsEnBBnyx4k8oiARM87J9fSyCZP5BSESOkDPsALVXdtajIRozop2O6QMXVx8ItE/YMmT8MJIpNK7eLitOu+D6FQaLi2izjjDX810EUyncu+ydSOYVwA1qOoIojLi4ouweFDtRc0XHtSSTULwJISQD+Bqmy7Pyn8P5Rc+I9a193jq4S63vAGKlb5SjYWPRJkU1X9xRb8VP1v2Ba4r2RafkpFVifRvZNX8Gj7XcxequaRTLu97s6+jvtgPjtBKhXw9LtNjWAZ1N7eUZx+K5eWcgYEbQBxGI5OEjpf/CkeE1HQkmIwLFmxBCMkSHNRvEFYV34+jCDQhq/7f2E4uQpwqXIV7yunaxXrGrwcx5rmJpLXDbdG6EUQR1i4h+oz9d6pAE3Fr7zWt2INm+x6LxcE1fPBBtDOmZuhehZAy/O+4KuDp3uzaXSxrOzH8Bb4s8KOdImsQDP70k81C8CSEkg/iCpvOkfSXvVkwM1su6zqqWkr0Jsb7fLLpcYMQzJX//t7mm05Sp7ciqXrJOrG/T++x3MA8QX/SjYnG37qgxoqvhGS/NcT1BrHKxuNXyNgPV5P+9B78H28rmAckknFQS88LVuCr/t3KtyrutDJCRg+JNCCGZxhO2yU4dbiz4MSKIw4nH4MbEpQrRVnGpp6oOtta3YmV1g6xaAVdUGHU6VUWt79qgWrp63OzqN741r5WC5tXbkEpaC9sgSz3unYK2eju6XaV5d8l03HnYx+BqnBMxTMNu/Dj/BhTD9nOTkYfiTQghGcbooyeSBwS24UcFP0Sx2wKIGKZiUSSChyEROUTV05zz5OZ9SCT8Oc+9Ued6QJQ2Lou1Yn1bWZVjun+AtO2sQeuuWiPOpplcd8ofL3i01odkQ/bLsVgwgp8ecxWS8YSJb0WqDl8v/BWqnEZzrsarvQJARgyKNyGEjADp+nZYeB2uKLgLeSmxXNWajUfRUvBRpAIVRkhb4in8e91us26EWy7WpU6nqju3hcLYG9SBbv1XzfYKgKw0vLAByURHU7eVbz3BRaItgHizvhomx90U7lvwFrxasVQs7jjy3TZ8tex3OCiySa7Va0i2oHgTQsgIYcRSnC7PKX4Wny65B6Kitvk87qA1colVWUEnblkvzgq3J66K7BDdxYuFeXZb6EtG2y14ubZ5zU5EG1qMv36fuh42LiFxqAvBCahF7+ClSUfh7kXvQDDaCh3u/u2K3+L4vFWmEmC++20vJ1mA4k0IISOIL3xwA3hjyTP4UsWfkEomxQKPI546AG3Bc+SchPlYycPrd2Nvs1jnRlm9643qAnVOAGvzI2Z/X83nVqTF1/pmNLy80XjXbXN5nfZzO+a1sJq8Cbh52ceNxa199D+c9GscX7BazpLrKNxZh+JNCCEjjSd8OgL9grIXcHXVPQgkRaRjUbQmT0YUhxhBjSVdPLJ+D6JJHYcu/zyVdUS4dXV5JA/1IvK2MmAO7YcdhCZOKgj1L2xAImWnZLUH7XGlrT6EhH45TCIXDwRx/aGfR02oBMVoxdcn/xEnFq5uFwwKd/aheBNCyAhjtM8TQJ0C5Y0VL+BLU/6OQrSJBe6iKf4WpNxytXGxs7EN/9mw1wim3/xtkB36xbHnC/LR/qVOe6QLckDObV6z3QxS08lYOprL7RXx1gDiOgWq7I85YXx/yaewOX8GSpwWfG3aX3Fm6Up4g91NPEj2oXgTQkgWSNdAFcY3Vi7Ht2f+BQWBOFSNa1svRUrkPCBnrt7dhGe26ve2VXD1CtcOXhMl3RcKYXV+Hhw50GkMmWz750Z316HulS2y7dh3us1he3JS+9pr/ZnbUvjN3HfgubKDEElF8ZM5f8CpZWtNXNlUPrqgeBNCSJZQMVRnmr2Fk8o24OaFd2FCoBlOAqhreidSqXwj7k9tqcGaPU1yvhVldabfOgWsDkewLWKnWTXHdGklF24sgYan15oBZzYs2afrckyFu2WfCLfs14lXbp19Mf5V9RrMCNfhjwfegUOKd2m0TPwo3KMLijchhGQZK4z6x8Ehhbvwq6V/wpKCPUjGqlDf9AYkUzqrWgAPrt2N9fuavSZslWgr4DrF6Uv5+Wj027btIbiJFPb8ZwWiTW1m28zcJksNLxkPiMUtgi/CHBThvmXm23F/5WukArEJtx36R8zKt3Oeq7JTuEcP3q2leBNCyGhjbkE9fn3IX3FO1VqkojPQUHeBWOA6mAz4tyfgitjQ7TOvNYvIPl5YiKgv7KkUGl9cj1hNg9lWkU95ZnlSrPqWmjBSiQDibgA/n/YWPFR1It457RXcuPTfqAq0qCcGCvfohOJNCCGjBBVKXyvzAwlcv/RhfHruswjEpqFuz1uQSoaQSLn4x+pd2FwrAm40WoXZFuX60ZKniwuQDLhoWrkZDet2djSvG+F2xQ8HLXvyRMADIvQh/Gj6O/BQ5Qn4+gGP4fOLnkaBhKtxMHGhcI9aKN6EEDKa8ERTdVN7pt899xX89sj7UewWY9/2tyMZz1ejGve+ugubaprMWSrMxgIXfd6JEB5rTqL2la1mUhYr3MZn01TetDsiFQAHzYEIvjz9I9g5aR4ePOUenDNtkzmHep0bULwJIWQU47gOlpXX4m8n34dzJ+1B3bY3INY6SQQ5hftWVeOF7XVylh3Epqqv4rtn0gSsPv0wY2lbNXYRbwmgeV/EjEpflTcTX5z+MZxxYCN+f9I/URlpaxdtU3Gggo96KN6EEDIK6SqiE8JxfOuIZ3HdwatQUnsCmmsWyd4kHt+4D/9ZvwexpH5iVMRaLHC1tmvnT8ea1x6FZCCItoawGZyWTAXw18Jj8Mf5F+Cak1fh8qUrUBzyv+hN0c4lKN6EEDKK6SziDs6bvQ23veZpnCHWc/OOo4FUCMt3NeCvK3agMZqQc9Ta1gZ3F40V5aiLliLaEMTeQDF+VnUeAsctwq/PfBrHT95n/DO+dgqD5AIUb0IIyQHaxdV1MKkghm8euxy/PqIG+VtPRbytFHuaW3Hbs1uxcU+znBJA8crdWPiDJ5C3oxl1yybhr4efgy9fWI3PHboaeUERd68fnKKdm1C8CSEkZ7AWtaK927PbNuPW1C141+pWJDYvRFKU+ImXt6P05qcw5+7lSJTnY92HjsL2Nx2IU87fjVilKLVe7gk2hTt3oXgTQsgox8yKZjRbpFsUN9UWQ92z61D3+KtItrbh3NDL+GHNI7j46RiueXILCvc24Q+LK/D7cxaiYVqpGYnekgzg2fxCPF9U4L0Lrv56fttNkkNQvAkhZBRj3s+2a2bilbbNe7D34ZfRsGYHUm4KbtJBtDmEyN4YDmvcg/VVS/DM/7d3HoBRFG0f/1/u0ntCKjUJvXcURBQVwYIFy4sigg0EFQVBfcWCFSsWLLx2Pis27L2hooj0DkkgEEiBJKTn7nJ33/PM7oZLSOAOucTA88vN7e7stJ3dzH+e2dm9E0/EitYt8fue/Xh/9S5sIzHnCW38QybpZn/8HBqKHH/+SRROW7PGjVyE5oGItyAITYZmUWqycUCkBKoM/ihnjHHbi8pQuGQ9CpZugrW4Ag4S7apiMyr3BaCgPAIZbXvAdMEJuOCyCMwYYMUbncJwTXQLBFIa327LxYdrsrFpbwls1U6UUJr8NrZl5MrJKjdqXuWprwv/bkxt2rbV/mfUxeJCWvs0bM/M1PYeIVmvdtPXBEEQ6offDKaMPpMJZtan41w11OEf+KK60R75suXvR8n6HbDmF6PawT/faYajzIRquwWFEdHw75OCDp2DEBVuh59LHw93w05udZkVC/dVYE25Hf4UplNcKHomRyE+NBBmEu9kmx09qqoQTJY931VX/QUuhp7cwakK9dH2qg362pGTkpqKjPQMde61a4AXPMPB2NadiLcgCI0NP5G8dkclxj+xC3aHC+/d3hbdWmlCcjyi2mAdbqwd5VWozC5ARWY+yvMrYa8gP6sfnH4BsEWFIyg1BvEdwhASE4hA/hluI27NF6dJMkzrKm1asdLKrqpq/FRixc/FVuTanQgLMKNleDBSY0NoGYQUCt/ebkdsdTV1BHhQXUuMbXPuFygBERpExFsQhGMaNrpPuSMd2QXVZE26MOuiOEw9K/a4FQeWSZfNgbKMPFRm7UdFTjmqy10k1hYEhAXCPy4EgS0jYU6OQVgkEOBPcqrabXJuVcYNfV1UOBWQ0QKUOZzYXGXHX6V2rKm0YXdlNex+fggJsKB1RBB6Rgahd5AZ7SheDMXx418y4bNzfJ4ejxHxFgThmIZ/3WrwzAzk769WwjV6UASentySXxh2XMJtr62oCnu/zoRfeADM0cEITghBcHwoLGEBMFl0sVa3GlhBNTFWDbyHcB5GTF5TMemL/fPtDqypqMbGCjt2UCcim5Ys5jHhgehHYn5jGE9u8y6/45HGFG+ZsCYIQhNxQIDyisiys/gpITke4ToIjAlGqyu6I3l0R8Sf1Arh7WNgiQgEv+7Uxb8cxuJL6xS0pgH3BhVej2dSb2ghRx/aQoK/BSPI2r45KRxPp0Thw65xeKt9FB5oEYSRFo6skhD+RYh4C4LQpPBt7sIyB1zUGnkrSMcK3GlRrtqphJo22Je1Vnf6ylGCBVsTcSP9A8m7nFr2YWYzkgMsaB9k0YojNB61TrW+wefowJaItyAITU+FlRWDReP4VAlNSN0FVVtvbLS8DzjuWGnrTVMeoWFEvAVBaHJ40pqJ3yAiCIJHiHgLgtCksGSrX7NkJwiCR4h4C4LQ5PDsc7mxKgieI+ItCEKTczR1m++bc2fAwRO/eNtsgoufi2bH6/p+Y5KYIDRHRLwFQWhynP9w2NwQYn65p8tiQrnNhb93VOH/firCPQtzMGneLkx+ahfuezMXX68uQ1ElZUbhjLiC0NyQl7QIguAz6hNG1dyQGzIzHfn7HTCRCREUYMLqZzqq16OSbazC1aDe182PTR0825nTZ3/WfRtZ2pt2VeHN74vw5YoSFJU54U+Wtr+FrBQKw0Xh8Fa7C2HBZlwzIgZXjYxBdIhZrBjhqHDUXtKSkUH/B2qavz7TX5/xz3/ahoi3IAi+gdsTtoJ5qPogqM0ZcvM25PPLWWg3P5I05awY7C6sRmmFE/ZqTcBZlEsrHHh9RhuEk8C7C7jWcJEfKW9GrhVXPrkL6Tk2hAfzy15UFiodFmvuFESH+aGsyqm2a8KQ+3ROCrokBsCPC+EFWv71w+Xk/e7lZTQ/Ld+6GHEOR900GSOvhuK7l8eTPOrDyFeL7n0aHJtj1Vf+YwURb0EQmj/Uxsx5Oxdv/bJfWb7ucJNj5xeS0Ao3RoagcDB9VcH72HJeRVZ5MHUEVMOlw79KZqXNWxfsxtcry/S0tGfG28T5Y/TACJzcLQxtkgIQEWFGCHUibA4ge68N9yzMxfJtFapcbPUvvrsd0uICVHz3PA6FVmYqUz1mO7/oROOAgBvl43o5CNqnJ6eFqQe1n51bmoxRDqa+sjA15TlE+g2hOl/cmXLPhxfepENh+dfjXNRx8qMycpk9refmhIi3IAjNH2pjHlqUj5e+Kaj318L0+WQ1WEnMNXEyGirNIg8N8sOaZzvy21OVP7dTHCyvzIHrntqFdTuqlNXMz4p3bR2E2y+Jw5DOoTD7UxosWio8p8dtHCeu/Uzm9P/twZfL+ZetgdSkQHz/SBpcJPyqcfQALkdhaTWmPLcZZRXuL2V34ZFrOqBr2zD1SlMNLU3eWvj9HixakqdKxHB2PVPCMGd8GgpLbLjphS0or9I6NloAwEyBbr+0LU7sEqV5uRXRCJeRU4Ebn9+ijSC4xa20OvDSzV2QmhiC3YVWTHpqo5aAEeYQmKnOW8cF4awBsRg1KE47Hkr/u78L8NTinVpdeZAOd5C6tA7FmKEJ6J0Wro6ck3I/jmMBEW9BEI4J5i3ei2e/KFDCWxcWb54RromlC7PGxCM8xAwbibjV5oKNrDSr3QkLWX7TRrdQDb6GSf0q1ri5O7Euq1KJAKd18UmReGhCEiy6KHC63KZp6R9Aa/Bov78fTpqxDTmF/OMowPu3tUGf9iEe3//mZDjeNyRkU+dvRnEFpaPnnZoUjEV3dke7+GAKoedPi8VL86nDsUmVVy8GurQJweJ7eiE23B/ZBVacMnMFisu1tAw4za4U7tu5/RCkJtppDbpxLGwYz/zfVuoY5Kh9BrxWVunA8vn90b1tODLzKjHopr8oIndlPEWrw5vOb43/jk2Bmc7HW5TPNOpkuOd1eFwICzLjtRldcWrvGK2e65yb5k5jiren16kgCILX3HBuC2x4rqOynN3d2vkdMX9SSwqhN96kJEO7heJSEuArT43GpDNjcBPFnXlhPG45nyw+DsmNFi/NwD2v52L1dk242dI8d0AEHr86Geo3NPSGToXVl+4Yfk7qGPxnWBR1FjSLfO4H+W6Wsie41MjAqIGxePiqNARSZ4Dh4fzMnEol0pqgs+Xvwh8b9+PmF7fWCDeXonVcAN64tZsSbg19dIDgchqO/TZkVeCnlQW8h5xRTk2EV6aX4u0f89S2ezz6Ij8jrAbnr/lrGMHqcyoqCz0tn/ggC1t3lWv+BKej8tBxj+fuuLgc30XplFuduPH5rSitctQpleAtIt6CIPgMtriD/E0HuUCyHvt3CFYyxHBDrokBj8rqwmPgJhIcjie5fba8RJuZTv4sDA9dkwynQ+lE7bgNYMQ7tWcYWZJavht3WdVwOufhCVoaFJo+Fw9LxP3jU2lVs1JZwFdsK8MVj5IlZnJhe24Vrpm3SVnBHIXziwqzYOGs7khLClFx6sJpO51OlZaKQ353vJGB/ZWaVa5Z3XwP2YR5H2ahWg93IF7NjfdaGDlxlvGR/qrc917BLq3GzaHtMUPiYHH7RTHOZxV1EuopKnq0C8WDEznugXTmkLvrshQM7BBBcbheuGxAbpEVeUU2ilVPQoLHiHgLguAzWJTqc0xwgB+tq1VCu2d9KFiUKDbufScPdj0si+WLU1oilAVYF05PYau5TQt/9TiZse15bA3OT5WL3BWnJ2H22BQ4SDRVOaiISzcWY9zcjbj4gbUkWjYVluFbAW/d1g09U8LVtgpcBxbLVnGB6n447+fOTVZeFT78JQ8mVWbNfbeiAD+vKeIoqj4TovzRvmWI2j4UHJs7EFNGt8YN55Ib3arGTSW/BTO6YVjPaC2sXq/7irl7czB8m2ASp6OckUYrTDu/NT64uyfiowJV2Rh+FW61/eDjFbxDxFsQhCaBxZLhBTflhiAfikqy4H5aU6pb50Asic+IEyJUQ+aNcBtQ96FGVPjZb54Y5m0qWr4m1QmYel5rXDuypXZs5Firv16xDztIdFVY+gsJ9MP/3doNgzpH1Wh2fWVnn0CLnxJCFnIOwqMNz32ejbxCK0WlTgMd+COLstTQP6fFfrPJ2k2IClDxD4XKWs9fW6ntOL8g/VZAbepPWTuEuunwZDU/Kr9a1cMYe4R/goi3IAhNAluSjFrQ1+Etb5457UIJvx2NInD4U3qEwkV+RwKnV1DuoHR43aUeLzuc4DWEJkomBJKAPz6pIwZ2iqASauXiqUWGaHEGsy5uixH9Y2vErmZfHTg219FpfWIwqn+MCscj4TtyK/HqN7tp24Qvl+3F2u1lWgTazxPkzjs5QYXzhEqbE8s2FWPZ5hJaHnB/knv3+xz8Qfs4X23UQxstqY/Ckmqs2FCs4rmnweneuzADe/fzqINW55yeIebCkaNXoXaRCYIgNBaaBBttjybGh2qKuNG3Vzg1K5T+WAjOOSESDornrdXNYsTCuG5nlZrRzpzYKeSI39BqDIfz969ritQEshob3kRHSTsM9+o3e9Qz7prA6vfNG4BT4OO9/dIUFY4Pk4/19W9zkbOvEtMXbKvp9PD96blXpSGs1u2IhuH0svZW4bTbV+L0O2q7M8hNemYzibJdlVkLD3RvR52lOuXlzV/WFWHYrBUqnnsavJz/WXatjhnPOI+J8Fd1dahjP66pr1rIT9WZtiWWtyAITQCJi8swvQles7MFrG0eggMh+PnvAWnB6llkryF1swSY8NkfxQiwkG1M22OHRVGDePgS1KVGgEik+bGxMQ+u1YaxFWzRB6rnnA1Bzd5nxcBpfyFvv1VtsxgfSsQ4XufWoZgwItnoDqCARPWcu9cir9imqoRjn9g5CqcPaKFF8AjtuHlYm4fH6zq+DWAM13OK/TuGo3fHSCXW7vB+DtdQOnx/n4f76aO4+YLWiIs4/LC+cGhEvAVBaBKUCLgJweGGzRkzCQTHY8GICPZDaKD3TRgLJfcb+FWsv6wvV8KTHGtBQkJArfJ4wgHhBr5bWaisVZ6QZfi3Tw7Bp3N647mpndW9bg7HFvfOfCsum7seewqrtHo4jJTxMPNtl7ZVE8wYjrIjv4pi0R/t43q47ZK2MHlQh+74m4GWsYFo2SKgAReI9knBuOL0RLx9Rw+EkBjXV9Jgyr8VheXwB6URq6XTPSUM91yeghvPb1OThrcjJsIBRLwFQWgSWLT4lZkGh5uwxuEDSLDZguOQpVVOdc/WG1hU+e5tpd1J4pmFKrtLDbvPuDAeDnUv3XPcRff7VYW4/tnNKK9yKHFmUUqKCcDLt3RVonb+SfG4e1yKekSOo3CYNZmluO7pzchXFvihj513t4gIxNRz9MlwhCF8XI7zB8fhxG5RqlPjKRy2bUIwfpvXH788PgBLnqjP9ccPj/TDvOs7oUU4dW4aYHivaPz+lBa+3nQe74+vHuiNm8a0QYCaKa/lLxw5It6CIDQJ/JvahmbxKk8cOxTc2IeQciVFW1T4MhLbnzeU17J060MJNjn1G96knNkldoy8KxPZBXYlvWf0Ccd5QyJrnhv3Bk7xz83FuPrJTSguq1bvEGdxDQnywyu3dEGPdvyYF3mQqX/t2a0w6+J2aj/nwi8t+XNTMcbO3YAK6oQYR1BTgjqHxEP6N17QFqnJ2vPxxjGHBpkx7cI2cKnOT01sIxNauvnpGHG5LOEUPyLYrJb1Ob49weXnZOompeqW/iyUUEiwpd74ylH6PIQOvYPmZTUL9SDiLQhCk6DrRw2HGzZnYfWjSOOHR5PlSoJhBu59Mw+WQD/13DP7cRqGU50Djsc/aBJiRkGZAzNf24NhM9LVK1FZP7q2DsT861vy74nWCJonqKCUAL+05ML71qKkohp26kU4SL1Zht+5rTsGdjEsYT0wlenG81tjyjmtwO8Xc1LYaoqzKr0Ep85cod5BzunaySzn18ZW05JfvGJE5y8Wyekk1OzPz5NzntPOa6W/6IXDcGDttbPcqdHCcedFeau9vG28/EXVOUXkuHz7oD7H9a45LQ2GRw44PpeBX47Dr6U/VBrsDqTjlpBwxOjvNqcTyB9ayrvNBUHwNWyt8U9/9p62TW2ziDxyVRIuHhypBKohWHz43VxDpm9DEYkxN11sGZ7cLRS9UoMQG2VR8fmnQIvLHcjZZ0dmng1bd1uRt58FVrMSebicf3Vs7sQkhAdq+XkjKprQm7B2e+lB7yHn97P3StOePecSG+kaYfjd7fyq1Lr5dWkdgogwf6zYWqKG8lmwAyx+6N8xotakPP5J0xXbKIwuvgM7RSrrW6sdgo5vDXUquFwMpzWwcwSFsaDS5sBfm/nxLxJR2seTzAZ0jlSF8/T4OZfcQiu2qFelchwXWkQEoGsK/xCLCnLcctTebZ6eodUtnyfl+HJw3yYn4i0IQmPDbY2N2pxuk7coMWCxfejKRFw6NAr+hxJvXQGXbavAdc/uRmmlUwkbD7mzlcnWoAFP8uLZ1DwczlY6W4ss3q1a+OPm0S1w4clRMLNIEpoIeYcqCuVRV7DUpl7Ouunq3twGH4QWjxy30bxOHEiLfYyltqgJowLRtu5hBDf2M0YYxj1v5U1f3hy+OgcUoVb66kvL5Ejq8lihMcXbrT8nCILQeFjIYo4OY4tRgwX4cM2+0XAN6hiKT+5ph35pQSoSvzubZ07zj4MYTnvUSbV3Kk5qoj/uG5eIXx5JwyUnRcFCYm6keWSQWFFngcXM3R1KxDSvg+Ow411qv5sfr2vHrKWnLeuEofSUn07d/exq4tXJW4umlddT1HG5pXEgHX2f0CiI5S0IQqPDbQ0bya//WIj/vsG/hgXcNTYBk0fGHHLYnFFiQSLBVrZfAC3JhP98eQl+3ViO7Xk2lFU51ZvAeGJbp1aBGNo1FH3bhwAUlmeUG8mL0AhHGxk2FwThuICaHWzaXQUbCXCHNkEIIWvZG0nlpotTcXJjRms8lMh+3NipDoLyJ7FX4TiEJvyC4Atk2FwQhGMeZUHTsktyIHqlBCHYUF4vUI0affHgu9GYsZ+2NPzdGkBjpyA0c0S8BUFoEgwhVcJKfwf9jrcgCA0i4i0IgiAIzQwRb0EQBEFoZoh4C4IgCEIzQxdvY4aHthAEQRAE4d9A/ZM4xfIWBEEQhGaGiLcgCIIgNDNEvAVBEAShmSHiLQiCIAjNDBFvQRAEQWhmiHgLgiAIQjNDxFsQBEEQmhki3oIgCILQzBDxFgRBEIRmhoi3IAiCIDQzRLwFQRAEoZkh4i0IgiAIzQwRb0EQBEFoZoh4C4IgCEIzQ8RbEARBEJoZIt6CIAiC0MwQ8RYEQRCEfxMmfXkIRLwFQRAEoZkh4i0IQqPjcrngJGesC4LgHSLegnCMwWL4bxZEVTYTNT5hFjjhgsnkwRihIAi1EPEWfI5qrOlKc/mb4Ary01wgrdM2zLwfcDobV3CMvA7kqeVf16k9+rIxcc/fG7Q4VK8BVMdHqdxGWfgcOfTz9E/S5qi55Q50umQd9lY4ayxwQRA8R8Rb8CkOapgX/1WCB97Nw3VP7sSYuzNx3uwMXDJnO659chfuezMPH/5ZjB0F1XCZSdCpHf+n4uAJbO2pPChP1jqnhTsSJt1fD+Rn0vxpqYmWIY6+h+xRla/3+ZlQUe3EdfN2Yn8l27VHXl51HqgYXI4CEtvtBXZk7LUfFUvZaicBp/IVUZpieAuC94h4Cz6DdcdBy8+WleDlbwqxMqMKASSG0aEWBJFlWEyC8OO6Mtz1f7kYNisdV8/bhcx8GwmG71tzFuPVu6wYRZ2J71aV4q7XcnHJQ1k45b8ZGHJbBobenoHz7tuOW1/cjU//KEZehUMTMsKXAq7Spjo6695M3Eh587o3+XHY4ionHVOZKreTOwFeokSbXIXDhU8ojbPuycSJ09Mx5oEdmL5gNzJyrf+gS6Dhxx0lWu4i8Rb1FgTvMbVp21ZrG/gflv7S0tKwPTNT23uEZL3aTV8TjnfY8l6/owqj7t2OF6a1xnmDIuha03dy15GtbbsTS9aUYeoLu9Wuv57ogJAAzQr2FSzey7ZXYsycHbCYgbAgM9KSAtCpZSBiI8wg4xXbc21Yu6MSuUXVFB54bGIS/nNqNPwpPv/T+Kx8VC8smlREnD84kivR47y4XFRUDJ6ZgZ7tgvC/G1p5Jd9KuGlZXOHEJXOzsDnbii6tA9Wx9+oUokYpYKMQxjk8AniYfC91MHpN2qLSvfy0aPhxoXW0BknLguvAQpa/IDQH2l61QV87clJSU5GRkUH/anTd0/89/+vz//+Bbc2J5S34FrreCksdqhEmfYTDSq10NW2Qc9G6iy1aEoNhfcKV2JSSaKzfWQWnW2PuCUaD79UMZgrCotw3LQR/v9ARn96dgsevSsJtF8Vj9iXxeJU6G0vndcRvj7dHVxKw2W/mYt5H+XDRcXgj3EoQuTj032asa+XT7yOTOLPT9pE/lemcgREYTR0dUwP1YITV0jHS02CtaxlrwcadleSve3qASo+W5SSsZ9yVie15Nrx4Q0t8dV8KetC5UeerikJ4kWZDBFGnLSTQj66NarVd9zhcdBBldhfe+LEIdr1czQGj/DKTXvA1It6Cb6G2q9zqUJZucJB2uSmRUI42qBG30+Kxd/Pw28YK/GdoJAZ2DIGZ/L2BxZSTq2Cr0CtcCLAAIS7qzVKBOB0z92pZnGnbn1zbWH9891AaurQKxMvfFiJnn12JroHRQKv74hyNJ+bxvXL9EHjvvopq3PTCbpTbWI01MXJZ/JBTXI3PVpXil80VtYblnQ6gisTLSNuoMxYF7jzwcLoqAt8Xp7pyK47qnYdRXReUOWHlMrnvawCVD8VzUHqjH9ihbmm8cnNrjOwfAT+uGz2cKjuXg9Ll4+Vl3QlntcrMfzy6wnWiJiequ/kIpvKHBJqwr4RvR7ilzlGpDC98WYATb9mGXfk25X8ghJYG56vSVxFqU5+fgYpTz60IY1vVL/9xGC5zTYer4TTdMTp1lXTuahWaUOnQUpWd09WvEyNpT/MQBEbEW/A5Ns24UuLNFhU35jYSp/U5Vsz/dB9OmpmOhT8V4e7LEvDwhCRuQWsaMq3hJC9qCBtq3IxG8c/N5eg0aTMy9tlUHG/gNreuNc3bLOLs66p24ebz40jUnFi1o6pGLI0ycfnSSdRf+aYQM1/cjVkv7cGiX/ejWpWMjjXLind+LVa3EJx0/Ot3WXH9M7swdFY6rn1qF/4zdwdmvZoDky7Kr/9YiP43b4OVRyl0uO5Y7J/4IB8jZ2eiL+0/5fYM3PdmLh0zdSj04nMnIDzIjCqylKvc4h8ODvn61wVIz7Fh9tgEDO0eSpY/+ZpYbLTzxsLKXgUVDmwmYV1Ox7ORwmtn4EB98HYpdaS+XlmGOf+Xg5ufz8aD7+RRh4JnQai+B6JCzSgodahOE8NxsvZX47JHd+JROsYrhkfj7vFJoL5VDSyuWXSsK7Oq1ElzP2c1eVOniFfdrxd1jZDbWWDHbS/vht3tGtOLruqvoMKJj/8swezX9uAWKvO8j/eihEeLCA5+6OtQKx/PCeg2ZQv+zjww8mHE4VGEFVT2pyhdTv/OV/fgjy3lRhEEwWNEvAWfY3eQBUsN/7ptFXjjuwLc/OIenHjrNoy4IxOvkCV72clRWPZMR0w8I4YaZGro9PZYNXi0XlzlwNd/l+gN54GG0J1qaox5WDs82A/xkRYlxkcLTcSBDkkBsNBx8LAyp8/lYDuSh3fnvJWLk+mY7n8vD59TWT9ZVoxbXt6DbSTS3AEoKa1Wk/UiqHyPLcpXk8CWrC9H75Rg3EudlrnUaVlMorErz66OkaoMlSR+ZZQXHy1PPPuDrPPhd2Tgha8KYaYCXTsyllwM1mVV4mTqAC1eWqzVEbnQYBOsVC7N8j64vurCIQorHVT+fKQlBuA/dE5cVIh9JFxbs234go5n7rv5GP/ETpxwazoGkVU8fGYGLpizHQ/RsXOHhPPhuuK+2vJtVCaehPj0Lrz1y358s7IUr39fhFtfyVGdAA7Hw+Z7S6pVB8FOx/fT2nKcQsexZkclnpvcErddkgA/nnzgBpfzXUpvxJ2ZePuXIvWcuDoP+jHyyMZD7+Riv53jaWWqIcAP06lTxR0KQ/RVXFrlPs4Xy0pw0oxtuIk6X+//XkLhSvEMdS6f+2yfspArHU589Bt3yDieFrc2fD0AN/1vt7reU+IDtOuZwnFp8kscuOrJXTj37kw8+3mBSv/934txFXXiWNQFwRtEvAWfw8LHwvXAe3sx94O9+HJFiWZxkf/uQjvuJ1Hoeu0WnHlnBuaSsG0ky8QUbFYNIQ+rv0YCf/3zu/HLmnIlTtzwGg2nanxpla3hDTutuOqMWIRQI300UY0v5fEziS0PFbejRpnzZD8ricuZJCQLf9yPQR1DsfTR9li/oDOWPd0RLSLM6p4tD5GWVjr5UHDR3J0kvgV4mCzKtS92woezUzCZRHjcsCg1A/+7NaUqXYbvgxeToPL9/6x8K8Y9loVOyYFY9UwHfDEnBZPOjMbFgyPx7n/b4aErEjBpfjY27tZGHVgYbRSfNUxPrkH4+Phc/L2pQsV9cFwCAul8fUydgbTxm9B/+lZMJ9HdnF2FU7qHqc4GBUerFv7Y+kpnvHV7OxJZTbidZuDFLwpw0cNZ2F/uwPPXt8SmFztj/f86Y/r5cViyoRz7iqtVnnxN5ND557xvJCv0iid3oj11kH57sgPO6h8OE5Wfy2MILcOrV54ejdhwi7qFYeJ3BSh/WlJ6L31doDoJZ9yWjiqqSD524/xtpU7BqowqdG0VCP8gv5p0TXR+ZlBHaxoJe6C/H96b1RYbF3RS5/GcARH4bFkpXFSPny4tUfXw/pJidQug7nXI7CyqVk9VjKHzEk3nn3PgjtjOfBtOos4MH/+E02Ow4bmOqk4+uTcFFVUufLeCzrtKQRA8Q8Rb8DncIDLJMRacS40hTwZ7c3obfHtfKn57rD3+eLI9Pr2rLWZQ476PLLHzHsxCn0mbsfCn/arlu+K0GARRGhPJQlmZXqEauVoNOu17jRrtUBKsCSNi4Ecttfv+f4LRKJupsX+RRHdAh2D0JWemQzKTWJx73w7k7q/GwxMS8ensdkiOtcBMZY4MNKEPWdVrqVPBCsJWMIsEC97fz3TEZadGq3A8Y051bugYYsPNyMyxwcLVpXa51AQ+BwnFpY/sVNb2lWfEqBng3MHZRMs/tlbiRbLiFrA1Tr2DiirqFFF0Fm9eVpMl6klNsDX8IYm1H+XdpUOI6jDwzPslc9Ow+bUuWPt8J7xB54zrt09qEJ8AdKSORAh1snhqvhIyiruAyvL4R3tVmL+f7YjRJ0SCu2Es7mcPCEclWfLZJHBcrSyo+STkA6en49tVZXhkYhK+uT8V0dSJUXMOiLrn0URmchJ1nljk+WmAJdyhU2m5UE4dpDd+oM4SbXPn8OF381Tnj9Pg9N77tRiVVB9n9AuHUx8K58q+4/UcfEJW97kDw7H0ifY4sWsIzJwolXl47zA6v3YU0nV59gkRql7vWJiDb5aXKIvdvXxchy99vk/V92XDo2Fic542eHTh7Dk76P/AhA/upI7WlYl0PVOZaH+nhADVyVuVWenReRIEA24mBMGn8GNfPPo5kSyOJyYnYzwJ0EndQtG9TSA6JgYo16NNEEaSsD9xXUt8eX+KGi6+440cZe3GhJmx4MaWrBe49plsZO2z1UxY4jY2M8eKb1aVonWcP2KoITxaGMJdQYtxZEnuJaGZc3ki/Eh0nVSYqWQtbiUBfZAa44tPjlJhDTO3gsR6eXol9hTYleVVzV/Eg+MSERNihh+lzQ2/0fiz8AWTaBXwMDL5cWg+Nr7fuo7SYQHg7anP78aYh7JUp2E0ucvJGn/wvTw1JMsdiy6tSFgpHHd2/Ejsq3UBORxWqu9lWyrQgizaMBIWvg/dvV0QepMIJ5FAU9+FK4QaDM0a5q+E6AN1zeK5bnsVnly8F/3aB2Px7BTEBJHlqQJr1fIVWZfcISku0yZB8PFUO7SRmQ/uaodxp5HgqeDauTXqvzZU91TW60bFcL8H//uyAGYeaaGgP64tU4/1daXritN+nYT8B+oUcNlA1+DSTeUIpQM5s0+4Cs/en/9ZjDepk3g2XXtPTW6JUHXsWk4s+PwOAD53RdSJ4kl2H97ZVo0YzHotV3WeDkycA3Io7/d+3Y/IUDPaU8eG/cpsLvXIHc9deJss+n5pwTXpcxky9trUuc3ea6/psAiCJ4h4Cz4nLMRPWaq5RXZqsUlLqDHkZsoQrxoR4xaX9qXEBSAhyl/FKaFGkwXgpG5hGN4zDCVkXU1fsAc2bvEpFbZ+F/1SpCbFXU1WIad9NFANMpWpmMRz5oLd+H1zOXUgWqE3N77kn0+W3efLS3HF8ChcOixKCbohNhzvpzVl6llpnjDGk6OMR9/Uy0mo9VbH6w5tmkkLy628T/NiYSilbRYEtrqDSYBuvzheWae/PpqG7x9Mw5dzUvExCd9Xc1Kw+J4UhKvn47kjQJYdpeGJ5c3F3rO/Wg1zR1FHyaLHoJTUH3cC3MvLx8KnKpI6IZoQURgSUO5EsGX6PNUTl13rgmhUkkjz/WMeHajkY2RPfff+ciceX5SHd34sQmahXRvq5/NLH0McDbRrBbiALHoW6ZUZldocBMr/k6XFyrqddWE8WdER6vn9OW/nopzPDcXZTR2pPqnBaEmWO6dhCjRhHnU2eARhPgm3uvGtwyXcS4X+dmWpKiZb7LzSlTqZPCReVuXAlOeyYdWvQxMd17dkjfN1OOWsWPUoHPstoQ5FZp4NT12bjG4UlzttjDoOKusb3xbSeTJhPz8yqfYIgmeIeAs+hZu2qBCLEuI8Egh147cOmuWiWdE88YmtoZ1kkfC95TP6kpVEmGn/q7e2UUPLqzKrcO/rOWoY2kHJffpXifIfdwqJKIU9SBg9xCiHEgtKg9/2Nuqu7WTRleOHB1Jxes9wanypjJzn7/thpQb96nNa8BRiPQVN1NiS4pnj/tSxUM9ws3DrRWqwZJwuRa5WgTU41UoSkC1k4fGw+9PXJeOmc1ugU1IAkiItSIn3R/fWgeifEoz2CQGqA6HMWIJFlDPz5Hl5zqeMOilsYfIx1aWmXihBHpR/nqxdrmMWStrBIdRs/DXbK3E5nYMEKht3NgyqaX3uu3moIlVmXxvfQqD4KiZ99aUOEc9X4PvJJ9y0Td0bfppENXufHVbKg4ejOXeelKjODcej9Slnt6AOkgOPkvCXU8fjzy0VasLi4K4hmH9DK3VffHdBNe56LQeVdE543sGofmGqg8ip5JCobttjw7VkxWvHcQCeCDf5qV3kza/GpTJTHHVEtHz4miSkJgbSNWrH5Hk7tXomxxPoQsiyn3p2rOpwcrm54xUfYcEI6kzwtaOgY+dJnH9sqsBbP+9X13EFdUAEoS7af5H2XRdu6wTBd9B1FxlKljc1WDykaVxxLFQsbDykabKQ7UFi83d6Bcbctx03vbSHGvQgfEEWJlswBg5q4OZPIQuJGtb3ycr6gxrrz/4sUQ00Pxuu0qF8vMFoT7kcLLxsDfEs7ykvZKsZ3B2SA/DHvA6qI6ENGVN5KdzK9EpEkzgkkaXKcDocv5RE8JKHs5SIPHJlomr42fLmzsvhUPm7lZ9X2arkZ7Y5Oj/3zSijlJ0exkJ5sWV499t5eOmrAmUp8/AwwyJ3ODiNdrH+iCBLml9XWkxxOJoh2ioJOg9WWp88f5f2aBOt8zll2KrNp44Zj5J0bxcMJwm5EY/P65Mf5quJe2zd8pCynU1risNhWNDvvyoRfz3dAesWdFadpEtPilJD4MNuz0TKZRtx6m0ZmEmdof/7qUjlZ8CT2vjtbzw8fufCHHWrpXUcnadgM6rpPNw/nuvfpUZIZlB87gAN7hkGpy7eKzMrlYh2bhtU08lRZaZO183/26NmzL99a2tV3xyX46gwVupI0bHw9fvrxgp8QRb3LxsqsCnbpp5I4FEIBR3btj1WdGwZiABViXpdUnr8ON411Dk4rVcYRpOw8/kz0hcET/CgSRGEI4eFLpyFhBqsIn7Glz48tMjDtH9mVOI1anivf3aXsrgueDBLvY3tuetbYfGdKQj35wFFzUpjx9YcizRbn3ZqTPn+9+Mf5CuBvGRYFBz1WI2Hg4qlGk1+/vg7EoxJT2ejx41b1GSo/5vVBi9Pa42oQJ7wpIJr0OHwK1QrSCC4A8Fl4+H8N8iKGkZCY6VG+81b26i3ktlIyNjxpD3Sqoah9Pn43F8FyumyRTaVLEyeSMbvgP+chII7F2wJbiPL8XUSxUsf2IH+09PxEXVoTu0dph7xUpY35eeJ5c33Wlm4bzwnVsWZ8sRO9Sw1l4ntTc5n9sJcXEAdq0uHReP6US24cEoYGeMcc55fUvkoeyVSy0kcxz64A/M/K8D081pg5NBoysdPdUgYjs1p8I+UWGgjhuq5V2oQbhkTh0/uSsHK+R3xw2NpmEbnm+tw444qNRRtwB2i+0iged9nf5UqP77vb6LzwvV4Zt9wXHhipMrj21Wlal977oTpScSRRcz3r3mkh+uX52X8sL4co+7KVIL8zHXJGNQ1lDpC2jPzdMg112E36jQ8SHnbKW/uWMx9J1elOeGMGO0tgoSJwvGthU27rNjNo07EburA8o/0nHl3JrpRp+GR61oijax4vl2iPQrJtSIIh4cuWUHwLfxsNA957si3YfAt29Dn5q0YOitD/dDFbBKkXzeWq5nNz09thW8fSlOvBeVGzBBuA9WwkTJMocZ8SNcQJZ45hdVISfDHsG6htQXWA7iZ5AabLaxBJH4zyOLn7F6d3gZf3JeKUylNHhlmuBw1juLw5Coeqp84jzoeM7ep+E+QhTmqXzg+uScFHahB5slfPOzNFmEUiZayrhpqnKnwbGEbgsiwZWcjoWYB4Wfgy+l4J8/PRp9pVIfU2Tn9zkz8941cbNxpxci+YVjySJoSAoZnM6thZrV1aFSZKOzEkbE4l+qeOySn3pGBIXSOBs3Yhgvv36Hudrx9W1uczparOjda3akVIiTUDydTfbF488tlBkzfhrFzs9T97ddvaY1pF8SpZ7a5Tvjes3rDGMXnR9Iig3l2udaJ4ALze8552DkiwITOJLYXDI7E01Na4VESOu6Y1JwHMvkHdgjB6WS9MtxROaNfhKo3PiYeyr/t0njqaFnUUP2MMfEqD47LDV+/9iFqVvzLXxeiP12Xfem6nEL1y+F5Vrh6rzx1SEKpHPl0nRnXl1Ffl5wcRR2EMPW4YAZZ0glRFlV/NdchLcefFqM6FydTXfLz8VyvXywvxa0XtMDCmW0QS8fOEy35KQuWd0/OlyAw8sMkgk/hi4sby2e/2Idfyarhe5TctrGlx5bHUGrw2VlIuFwkchRUhTfi1UU1ypRCodWBISQSxgShWy+Og0l7eZdHcDoF5U51n5KtYm7E+6QFwxLgp2YzsyXGNFwG3gd1/50tyRgScp6QxKrgJKHgffyClCc+2oeJJPQ8sY5fynE2WYNstZOEaIkRqsGmeK98XYCtu6149KpkZJPALSaLcCwJRHQohaf4Wbk2vPPLfqzOqFSzl1vG+uPkHqHg4eMwCuPifDkt+tpEgv7K94XKMg0h5a3vONzhY1IRSfSXbyrHp8t48pUT/UgcLyLrlcuvhpspnUVLiqjTlYdxp0bh3vFJaniY4VsOO6mMWXvtavJd15ZBiCJBc1KnRQkzffhxNO4InDckEtNe2I0OyYG4gTpjLIYNldG4FrQycr1r4YxtJ6nlEBLG5GgLPprdrkbgGT5T3Fl4cvE+PHp1Esw8xq/VuIIfM9y2q0rNFOd7+D3aBCIkzK3MFuC1bwqRmhCAYd21TgJj1FcVBTmFOjj5xQ6y8iPw+KRkmOiaNMrGSl5J18earEo1s741nbN2yQHU8+EwfCz8DL8Nby3Zj+kXxSGA/FS+QrPkaP8wibqOyakF/wOpdd2JeAu+hC8uvvCobVbDiKrlJvitWiwG7M9efDFqYbX9h4LD8chk35u2oqDEge/J4uyaqA2HehKf0S56ftUnXfVcNopmxPekHCo6/b9w+evG1/ZrafC9fb4HzWHYElbPcBN101flYS9OhOqF4bR5k1FpaZmqGeu8xiMAbKlreR9cbi1N2q7j3xBGfE5Ts1C1MuunTDUePEHwfRLvGxbsUcPZs8cl1BIr/maLmuEOEKfnXi41C51WlT/t53vy6uaIh2WsC8dTeVLnglfUpD3CyJfhb0MQ3fNx389WO3tr9c1fbmXmOOxbs0+D4/O74E+7PUN1ut6njsOJ7YNVGkb+xtK4fcGT04wU3MtBH3WdCM2bxhRvvSkRBN+gNVB8z5guOG4lyTpUjhoz9uN7k0YjZiwPhdHgsrXC99B5YlsXniSkruvDxzfgsBxc3WcmdeKlN+XgIByuvviMsW40yLzJr8xk//rSV/78p0REC2OkaYTn+lIixEKgiwGHMYTJCGeg4upLTzDCafmq1Zrzo/bRh6fnjRkShbUvdcbtl8Rr55IwwnBZ+HEwdkZ6xpJxf+yMj5WFW627hfEGjscx+YUn7sJtLNkZ9cO45+O+3/0cchD3cLxf2z7gZ1Ba4cDOfTZ0bh2IQR0OCDfjvjTqxEjL2Mfwugi34C0i3kKjwm2WW7t1RPAjOJ/+UaxeanL9qFjV6B5vNOURs6AnBpthqSNCTYUhhoZrDJS1TPXA1yGb7mOHRqkOgCA0FiLeQrPDZnWqH3Sw2Z04sWeYGnr9N4jI8QJXtWZh6h7HKQ6y9hd8Xahm/w/vH67utQtCYyHiLTQrSKfVz0Fm5dsxpGso4sgCFNkWGhu+DvknYNNzrOjfPhhpLQLUdSidSKGxEPEWmhV+FhN+XlmKkEAT7h2boE0mkgZTaGT4OvxzXZn6BbuZY+LUpDe5DoXGRMRbaDaoyWrUPv6yoRyJ0f7o0j5ErG6h0TEmTX7xd4l6vKxfl1DNFBeERkTEW2g2cPOYnW9Xj+Wc0ScMLn5eTBAaGb4O+XWw/Nvgw3qEIcSPJ8pp+wShsRDxFpoN/KzsisxKNbv8+rNiZaKa0CSw4b15j1W9OW32pfHKQ65DobER8RaaDfwu69H9I7Du+U5IjLRIgyk0CTzTfminUGxZ0Em9MY3sbn2PIDQeIt5Cs8IEF4LM2uQg0W6hqeDrMNjfeLZc9xSERkTEW2g2aA2l5gShqZDrUPg3IOItCIIgCP9qDu4oingLgiAIQjNDxFsQBEEQmhki3oIgCILQzBDxFgRBEIRmhoi3IAiCIDQzRLwFQRAEoZkh4i0IgiAIzQwRb0EQBEFoZoh4C4IgCEIzQ8RbEARBEJoZIt6CIAiC0MwQ8RYEQRCEZoapTdu2Lv5xef5Bef5LS0vDls2btb2CIAiCIDQanTp3RkZGhvqdePXLdcav2PFOY51dQ+Ldt29fDioIjc7KlSvRtWtXfUsQGo+NGzfKtSc0GXz9eSreMmwuCIIgCM0MEW9BEARBaGaQeBvmuNqugcfSxYlrCicIgiBo1Egzj6Drq4xY3oIgCILQzBDx9gaeJODnV+Nokz0RkpyCpOA6QxeC4DV0ffkHIzQ0CP5N/J8Z2+ssXHByGoL1beE4pE57pzkTTEFtMXj0eTihlUUP6I4/Ytu1RYy/vnlIotBtxAU4rXO4vi14g4i3xwSj75SX8N67b+PttzW38J6RiPNrg3Nuewg3DU+oNaRxSCzhaNkyBvVd+sLxiV/cYEx9dhE++2QR3nnvY3z+/myc3IRtmn+bU3HBifHSQBy3hOKE6W/gww8/xEcfLcann3xMy4/w8WdvYUbfBPS7eBRS/Rx6WDciBmHyYw9hfHdPun0BSDvzIgyMkVtlR4L8b3qByeTEzo9nY+L4iZg4cSKuffBb7HVmYdHNl+G/X+TC00swceSduPuiVOqjCgITi+E33oSe6x/E2HNGY/S55+CimZ9gjwzmCE1GOZY9fR0uv/xyTLjvexTu+wy3/edS/Oeiq/HMKqsKoR5jqkvJb3jwknF4alWl7iH4CnNkVNS9+roiJiYGBfv2ISkpSfcRNPyRPHAUehT/iC/XF8BeXY1qJ8t1C5xw+VUYErAFG3LCaX0ChsRa0GH0eJwZsQOrKzpjzFVX4T/nnoyuIXtRmHAOzh+ciqS4SCR37IiQnHXYUSI9T3dyc3MRHx+vGofjwvm1wKCLz0HU3+/gq20VVAMu2Pbno8jG+wORPPgyTL3+Cpw9IBnW7Zuxq8xJ/mZEdz8XV103AReNOhHtTbuwfnsxHCZ/xPe/ENdedyUuHDEIKeYcbNleBDtZOZ3OnoxLu4Yg9ISxmHTZmegWmI316UWoVuUIRptTrsQNk8fizJ6RqHS2Rq/wzfhyaTbsdct7DLu9e/ceX9feIRxcDlRTO+eM6YfRgx349dO/kWejbb8EDBw9AM7NRegx7npcfmYPhOZuxJYCG0xBXXH+lDFok78GmVWdMHrSJegaHo2hl12O3rY1WF2YgFPGT8XksWeiV5QNrjY9EL7pS/yeba+3DMeb4+uvRYsWKCoqAvnU+NMXf5Sftn6I57zrmwV83DuumOBoJCQkIDExEXHhFuUf3a0f2vhX6+sDMeys4Wix5U9sKO+GG+dejeRNn+Ctd35AtikE1XkZ2JpbDkfxLmzckIG8KmftPMSp6++4wpWN7xatQrupT+PBKwYhMVD3p3/UxFH34PGrE7H+/dfxUXoKrn/0JgwKJ1t92H/x/N1DUfHru1j43h8oDo2AmcInnzUH86f3wt4f3sabH29A9NhH8ejlHanraUJg274YMPJ09Nr3Pd79dBvaXH0/JvcPUfm0PHcOnrwmGZs+fBPvr4nGGWekUnqC0ADOEAw4qx/2fv02PklvhfFzrsegUPJ3+aP1gD6IdzooTADaDuqH4cP6omTZMmyvTMC59z6KCclb8dHCRVgddSpObSs3D48UGTb3AhcsaDNqBh559FFyczFzZOt6KjAIFUtfw8tf/4DvNlQh2GJFcV4Wtq1fisXUc92xZQlW76kGStKx9Kcl2LjXqccTjl9cKPj5AVx900LsO2EWXntvPiYNiIGfOQ2jxrTGilffxl+79yLz+7fwVXFvDO3WBSPHdsHqJ+/HG0vWYuOaH0mM16KCwp95YVv88fhcvP3bWqz7+xM8/fh3CBkxAp25Q+AywbXuAyz4cgXWLv0Q7/1uQ0r7OJjMqTh9dEv8+fQ8fPz3Oqz98VW8+E0ea7og1I+/GZs+WICv16zH0g8W4Q9HKtq3qOeCsYRi5xfzseiHb/FrxWCc12o5npv3IZZvWIcfX12AH/ZJF/FIqaM9yigXGsCEamR9PBsTxo/H+CuuxMxFmThYequQn1+iWen7l+CFZ9eg8y0LsPDFOzGmE3dNBaE+XCjP+BpPTh2LifN2YPDsObi4UyISwyMxaPLDeOyxx/Dk07MxIqISfhGt0DpiH9KzSvW4OsEJSAwtwM5cHnrXsO7bjQL/WMSyeJucqCgqgU3tsaGipBIwW2CieEkUb8fucrWHTCZUlpbBIXdzhIZwlKGwWLuSYCtHud0PZnM96uEoRk6+dj2GJCQiuGAHdhuXp7MCxaV2fUM4CK7OulVK24aXn1qpG0BoGKdLE+YGob01Q78O7P3zZcyaOB4zP3Dh/NvGoWuAvksQatDuZ2nYkLvkXXyxKwEdE6tQWFmC35+cjAkTJih35RXX4tGfslFki0XrJB7ydqNqH/ZVkX/iAf+A2CTEWHORf6j5Q7ZSlDqikdjCGK/3R3R8DPylXRCOIjbqEDqjE7SOJOMfg8RYbhCll+gO/9vVb0bX9tMsb73ueFe1wwGLRe5DHA1MLUfgmokj0K9LChIiA+CsrICVTPWqsgqEpPVEr14noley1PVxj18KLn3gEUy75AwMPuEknHX1jbgwKR1/b1iLH74rxrBpN+OCgd3QpecpGD9jHHr7bcVXn+bh5Jl34PKTeqJbn5EYf2EvBFen4+tPcjB05u0YO6QnevQfjWkzhqNg8ZfYcigDx7YVP/9ixWnTpmJUjy7offaNmDDADLu0qcJRxJr+M361jcDNN5yD3t364JwbJ6CvqYr2SC/RgLW3urqeR/DqwRwVbcw21yowOCiYBLxazToX3LEgKiERAYWbsLrWcGUoYhOj4MrbgA05ZlqPhDN3IzbmVMFkDkBS92E47eT+aGtfjlee/RhbK1yo2pOOffEn4cyBUchZsRxZZXpSgsKYbX7c4KpCcVU4OvY9AQN7pSKqdCXefOJ/WJJnQ+H6X7GqqgOGjxqOAR1CsfvnL/DrjmIUbvoFv+clYcjI0zCovQXbl/6ODXkVKN68BL/lJJD/GTihYyC2LXoM87/fg2rqp0fFJyGkeCtWbi+mTP0QGd8SYWVbsSKzAPlrfsfWgN4YceYJaFP+Mz5ZWgpL1U6s3JSH42lg05htLhzAPyYRcZZCbFmVif18n9ASibi4QBSnr0Eme5gj0YK2S9NXI6MsGomJ/ijeRvsqopDQIghlO1YjvZDCVedj9W9bEND7dIwY1AblPy/Gb8X+qN6zltpO7fGz453yigpY/C0oLysnSdZG5NSMc9Znt23Wa1Pbdu1caoYvf2gZHRMNJ1nfrVq10lIThEZm9erV8rOMQpMgPwkqNCX5+fnw8zNrj4ppSl1bsPVtN/GmdfriP3+LvxLuoKBAPYIgNC5r1qxB586d9S1BaDw2b94s157QZDidLmRnZ8NebXeztjXBrrVNYUm8UzTLm6Vbt8AjIyMRFx+HAH95B5jQ+LB4C4IgHE+0JKPZWmVFcXExK7Uu0g0JOC1YvDXh1obNDQs8OSkZoaGh8Pe3qIiC0FiweAcEyLR8QRCOffzJSI6JiWVlVvN92IBWmmuItLtg16yTa8eWty7ehnCrdSIyMkJNXCsqLERVVZVy/Lo8QfA1It6CIByr8KxybuMCAwMRERmJQtLYkuISbWddkaZV5aO8eEP3b5fCw+a61V2PiLPlHR4WjoDAAAQFBsFs9qM9Kmg91OtZL56HJLwK7Ck+SfRfUFTfHJcv8FlJm/4kHIOoFqR54KOiNqMaILworQ8OzHd1dfRT1sTRF9STMHmxLz8OZrVWwWqzoaysDHZ7tSbOKoAu1DXr2rby4XW1Sst2KalKpTWxpgaKP/q29nHz175qlnVR/p7iVVDfpOspvsvfs8A+OCSNpq6rpqYZFfWYRbVExx56E3t08SJJ73Jv6rIe/fw1C9UH/NPjIi/lrwuytq4tVZlr/Nz3112nJSdVW7zZi5e0oj611w9a1kGF9QVeJFtfuerFZ0X1qrBHHa/y9wYfJespPjsu4ZhDNXLNBS+K6t1R+Sxhj/DZOfAwWa/y9yroP0tXxVcf9yV9u/vxtuHPcdRObV0tDf8UEm/VMPJHrbmvE+5+/Kd5qk9d9Bie4VXQo5+ur8rqDV6VwVN8VFZPE27i7AXCF9eV3nQce/josDxP1osCNPEp8Nk14FUVeBjYF2ky/zRd5UV7aKn21yzd/bR1tcXrarXOfvZKSSXx5v91XaTd17XPgWVdK7wuyt8XeJGsx2XwWVG9KuxR599wDjzH80R9dFTNh6auANWCNA98V1QfpOyjwupN/tHFiyR9kj/jYbJe5d+Yx2UIr6bEWnq6n7F90L4662qLN1NS00iTuWWgZl81ELykFfXRl0rMeRcvjX31oCXgEXqKRx8Pk/Uqf58V1ePCNjk+O1+e8i+oA89pVoX1AaqFaR40cVFVo+wLfJDsv6GsHpfBF2kyXlXBwYGVD32pPGsJc20/tcXrarUBPxZv1TRze6OLdC0x1/20Ja2pj7asix7SM7wK6kVgT2nq/BmfHJaU9bjHF9WqWoxjD70pbDp8lL1PjuvfUFYPg/rsvGoq6hH1hiRPVTb+qLT0krIYayvK391Pbbn7GctUtrxpXRNsY0nNquapNbDqU8+yLvV4NUS98RvCi6Ce4lX+XmDU41HFN0X1Cp/U17/guHyBr66t5oLevBx7+OCwfFZXTXwKNGE6+nhcX15l73ngf5qsKr/6uC/1o+Klm5/mVXuf2qv8gP8HOCDGJpbB4EQAAAAASUVORK5CYII=;" vertex="1" parent="1">
          <mxGeometry x="1404" y="230" width="495" height="752" as="geometry" />
        </mxCell>
      </root>
    </mxGraphModel>
  </diagram>
</mxfile>
